<?xml version="1.0" encoding="utf-8"?>
<svg version="1.1" id="Layer_1" xmlns="http://www.w3.org/2000/svg" xmlns:xlink="http://www.w3.org/1999/xlink" x="0px" y="0px"
	 viewBox="0 0 3479.4 2286.8" style="enable-background:new 0 0 3479.4 2286.8;" xml:space="preserve" height="100%">
<style type="text/css">
	.st0{fill:#FEFFFE;}
	.st1{fill:#E7A300;}
	.st2{fill:#FFD71F;}
	.st3{fill:#FFFFFF;}
	.st4{fill:#ED3B3B;}
	.st5{opacity:0.3;filter:url(#blur);}
	.st6{fill:#0A3542;}
	.st7{fill:#4CB04F;}
	.st8{fill:#DEDEDE;}
	.st9{fill:#FFC40E;}
	.st10{fill:#B22C2C;}
	.st11{fill:#ECB533;}
	.st12{fill:#052A33;}
	.st13{fill:#265827;}
	.st14{fill:#3BB6D5;}
	.st15{fill:#D9E1E4;}
	.st16{fill:#BAC2C6;}
	.st17{opacity:0.34;fill:#FFFFFF;enable-background:new    ;}
	.st18{fill:#165670;}
	.st19{fill:#E80F0F;}
	.st20{fill:#D80505;}
	.st21{opacity:0.18;}
	.st22{opacity:0.32;}
	.st23{fill:#BA0000;}
	.st24{fill:#4CAF50;}
	.st25{fill:#308E30;}
	.st26{fill:#3E9B3E;}
	.st27{fill:#8BC34A;}
	.st28{fill:#1F6D1F;}
	.st29{fill:#FF4545;}
	.st30{fill:#0E540E;}
	.st31{fill:#CCCCCC;}
	.st32{clip-path:url(#SVGID_2_);}
	.st33{fill:#FEFFFE;stroke:#FFD71F;stroke-width:14;stroke-miterlimit:10;}
	.st34{fill:none;}
	.st35{font-family:'Roboto'; font-weight: bold;}
	.st36{font-size:49.6879px;}
	.st37{font-family:'Roboto'; font-weight: light;}
	.st38{font-size:21.8627px;}
	.st39{fill:none;stroke:#FEFFFE;stroke-width:14;stroke-miterlimit:10;}
</style>
<filter  id="blur">
	<feGaussianBlur  in="SourceGraphic" stdDeviation="33"></feGaussianBlur>
</filter>
<g>
	<g>
		<polygon class="st0" points="1762.7,1901.6 1607.7,1812.2 1660,1782 1814.9,1871.5 		"/>
		<polygon class="st0" points="1932.7,1999.8 1777.8,1910.3 1830,1880.2 1984.9,1969.6 		"/>
	</g>
	<g>
		<polygon class="st1" points="1679.9,1289.7 591.4,1918.2 542.4,1889.9 1630.9,1261.4 		"/>
		<polygon class="st1" points="1762.4,1340.2 674,1968.6 625,1940.4 1713.4,1311.9 		"/>
		<polygon class="st1" points="1845.5,1390.4 757.1,2018.8 708.1,1990.5 1796.5,1362.1 		"/>
		<polygon class="st1" points="1928,1440.9 839.6,2069.3 790.6,2041 1879,1412.6 		"/>
	</g>

		<ellipse transform="matrix(5.421873e-03 -1 1 5.421873e-03 -165.0905 2240.0483)" class="st2" cx="1043.6" cy="1203" rx="92.9" ry="160.8"/>
	<polygon class="st3" points="2898,2286.8 1032.3,1209.6 1613.7,873.9 3479.4,1951.1 	"/>

		<ellipse transform="matrix(5.421873e-03 -1 1 5.421873e-03 729.1969 2480.9482)" class="st2" cx="1611.8" cy="873.9" rx="131.3" ry="227.5"/>

		<ellipse transform="matrix(5.421873e-03 -1 1 5.421873e-03 311.6233 4095.0615)" class="st4" cx="2214.5" cy="1890.9" rx="131.3" ry="227.5"/>
	<g id="editor">
		<g>
			<g id="shadow_2_" class="st5">
				<polygon points="2191.1,1879.6 1195.7,1304.9 1894,901.8 2889.3,1476.5 				"/>
			</g>
			<g>
				<polygon class="st6" points="2191.1,1759.6 1195.7,1184.9 1894,781.8 2889.3,1356.5 				"/>
				<polygon class="st7" points="2891.3,1355.3 1895.9,780.7 1937.2,756.8 2932.6,1331.5 				"/>
				<path class="st8" d="M1950.3,788.2c-4.6,2.6-12.4,2.4-17.5-0.5s-5.5-7.5-0.9-10.1s12.4-2.4,17.5,0.5
					C1954.4,781.1,1954.9,785.6,1950.3,788.2z"/>
				<path class="st9" d="M1979.5,805c-4.6,2.6-12.4,2.4-17.5-0.5s-5.5-7.4-0.9-10.1c4.6-2.6,12.4-2.4,17.5,0.5
					C1983.6,797.9,1984,802.4,1979.5,805z"/>
				<path class="st4" d="M2008.6,821.9c-4.6,2.6-12.4,2.4-17.5-0.5s-5.5-7.4-0.9-10.1c4.6-2.6,12.4-2.4,17.5,0.5
					C2012.7,814.7,2013.2,819.2,2008.6,821.9z"/>
			</g>
			<g>
				<g>
					<polygon class="st10" points="2181.3,1032.2 1972.2,911.5 1985.4,903.9 2194.5,1024.6 					"/>
				</g>
				<g>
					<polygon class="st10" points="1994.1,958.8 1959.5,938.8 1972.7,931.2 2007.3,951.1 					"/>
				</g>
				<g>
					<polygon class="st10" points="1964.1,976.1 1929.5,956.1 1942.7,948.5 1977.3,968.5 					"/>
				</g>
				<g>
					<polygon class="st10" points="1934.1,993.4 1899.5,973.5 1912.7,965.8 1947.3,985.8 					"/>
				</g>
				<g>
					<polygon class="st10" points="2167.8,1059.1 2061.7,997.8 2074.9,990.2 2181,1051.5 					"/>
				</g>
				<g>
					<polygon class="st10" points="2137.8,1076.4 2031.7,1015.1 2044.9,1007.5 2151,1068.8 					"/>
				</g>
				<g>
					<polygon class="st10" points="2107.8,1093.7 2001.7,1032.5 2014.9,1024.8 2121,1086.1 					"/>
				</g>
				<g>
					<polygon class="st10" points="2033.4,981.5 2009,967.4 2022.2,959.8 2046.6,973.8 					"/>
				</g>
				<g>
					<polygon class="st10" points="2003.4,998.8 1979,984.7 1992.2,977.1 2016.6,991.2 					"/>
				</g>
				<g>
					<polygon class="st10" points="1973.4,1016.1 1949,1002.1 1962.2,994.4 1986.6,1008.5 					"/>
				</g>
				<g>
					<polygon class="st11" points="2050.4,991.3 2043.9,987.5 2057.1,979.9 2063.6,983.7 					"/>
				</g>
				<g>
					<polygon class="st10" points="2020.4,1008.6 2013.9,1004.9 2027.1,997.2 2033.6,1001 					"/>
				</g>
				<g>
					<polygon class="st11" points="1990.4,1025.9 1983.9,1022.2 1997.1,1014.6 2003.6,1018.3 					"/>
				</g>
				<g>
					<polygon class="st10" points="1949.5,933 1943,929.3 1956.2,921.6 1962.7,925.4 					"/>
				</g>
				<g>
					<polygon class="st10" points="1919.5,950.3 1913,946.6 1926.2,939 1932.7,942.7 					"/>
				</g>
				<g>
					<polygon class="st10" points="1889.4,967.7 1883,963.9 1896.2,956.3 1902.7,960 					"/>
				</g>
				<g>
					<polygon class="st11" points="1892.9,1039 1839.4,1008.1 1852.7,1000.5 1906.1,1031.3 					"/>
				</g>
				<g>
					<polygon class="st10" points="2047.8,1128.4 1966.8,1081.7 1980,1074 2061,1120.8 					"/>
				</g>
				<g>
					<polygon class="st10" points="1938.5,1065.3 1907.8,1047.6 1921,1040 1951.7,1057.7 					"/>
				</g>
				<g>
					<polygon class="st10" points="1955.5,1075.1 1949,1071.4 1962.2,1063.7 1968.7,1067.5 					"/>
				</g>
				<g>
					<polygon class="st11" points="2241.7,1309.7 1990.9,1164.9 2004.1,1157.2 2254.9,1302 					"/>
				</g>
				<g>
					<polygon class="st10" points="1971.2,1153.5 1850.9,1084.1 1864.2,1076.4 1984.5,1145.9 					"/>
				</g>
				<g>
					<polygon class="st10" points="2223.1,1229.6 2142.1,1182.9 2155.3,1175.2 2236.3,1222 					"/>
				</g>
				<g>
					<polygon class="st10" points="2113.8,1166.5 2070.6,1141.6 2083.8,1133.9 2127,1158.9 					"/>
				</g>
				<g>
					<polygon class="st10" points="2130.8,1176.3 2124.3,1172.6 2137.5,1165 2144,1168.7 					"/>
				</g>
				<g>
					<polygon class="st10" points="2237.7,1238.1 2231.2,1234.3 2244.4,1226.7 2250.9,1230.4 					"/>
				</g>
				<g>
					<polygon class="st10" points="1829.4,1002.3 1822.9,998.6 1836.2,991 1842.6,994.7 					"/>
				</g>
				<g>
					<polygon class="st10" points="1772.8,1108.3 1719.4,1077.4 1732.6,1069.8 1786.1,1100.7 					"/>
				</g>
				<g>
					<polygon class="st10" points="1709.4,1071.6 1702.9,1067.9 1716.1,1060.3 1722.6,1064 					"/>
				</g>
				<g>
					<polygon class="st10" points="1789.6,1117.9 1783.1,1114.2 1796.3,1106.6 1802.8,1110.3 					"/>
				</g>
				<g>
					<polygon class="st10" points="1611.9,1154 1558.4,1123.1 1571.7,1115.5 1625.1,1146.4 					"/>
				</g>
				<g>
					<polygon class="st10" points="1548.4,1117.4 1541.9,1113.6 1555.2,1106 1561.7,1109.7 					"/>
				</g>
				<g>
					<polygon class="st10" points="1628.6,1163.6 1622.1,1159.9 1635.3,1152.3 1641.8,1156 					"/>
				</g>
				<g>
					<polygon class="st10" points="1784.2,1080.2 1777.7,1076.4 1790.9,1068.8 1797.4,1072.6 					"/>
				</g>
				<g>
					<polygon class="st10" points="1869.2,1059.9 1837.7,1041.8 1850.9,1034.2 1882.4,1052.3 					"/>
				</g>
				<g>
					<polygon class="st11" points="2003.6,1137.5 1881,1066.7 1894.2,1059.1 2016.8,1129.9 					"/>
				</g>
				<g>
					<polygon class="st10" points="2348.6,1163.5 2242.5,1102.2 2255.7,1094.6 2361.8,1155.8 					"/>
				</g>
				<g>
					<polygon class="st10" points="2318.6,1180.8 2212.5,1119.5 2225.7,1111.9 2331.8,1173.2 					"/>
				</g>
				<g>
					<polygon class="st10" points="2288.6,1198.1 2182.5,1136.9 2195.7,1129.2 2301.8,1190.5 					"/>
				</g>
				<g>
					<polygon class="st10" points="2539.7,1273.8 2354.1,1166.7 2367.4,1159 2552.9,1266.1 					"/>
				</g>
				<g>
					<polygon class="st10" points="2578,1330.6 2324.1,1184 2337.3,1176.3 2591.3,1322.9 					"/>
				</g>
				<g>
					<polygon class="st10" points="2593.6,1374.2 2294.1,1201.3 2307.3,1193.7 2606.8,1366.6 					"/>
				</g>
				<g>
					<polygon class="st11" points="2214.2,1085.9 2189.8,1071.8 2203.1,1064.2 2227.4,1078.2 					"/>
				</g>
				<g>
					<polygon class="st11" points="2184.2,1103.2 2159.8,1089.1 2173,1081.5 2197.4,1095.6 					"/>
				</g>
				<g>
					<polygon class="st11" points="2154.2,1120.5 2129.8,1106.4 2143,1098.8 2167.4,1112.9 					"/>
				</g>
				<g>
					<polygon class="st10" points="2231.2,1095.7 2224.7,1091.9 2237.9,1084.3 2244.4,1088 					"/>
				</g>
				<g>
					<polygon class="st10" points="2201.2,1113 2194.7,1109.3 2207.9,1101.6 2214.4,1105.4 					"/>
				</g>
				<g>
					<polygon class="st10" points="2171.2,1130.3 2164.7,1126.6 2177.9,1119 2184.4,1122.7 					"/>
				</g>
				<g>
					<polygon class="st10" points="2570.5,1291.6 2564,1287.8 2577.2,1280.2 2583.7,1283.9 					"/>
				</g>
				<g>
					<polygon class="st10" points="2602.9,1344.9 2596.4,1341.2 2609.6,1333.6 2616.1,1337.3 					"/>
				</g>
				<g>
					<polygon class="st10" points="2615.3,1386.8 2608.9,1383 2622.1,1375.4 2628.6,1379.1 					"/>
				</g>
				<g>
					<polygon class="st10" points="2061.3,1101.5 1852.2,980.8 1865.4,973.2 2074.5,1093.9 					"/>
				</g>
				<g>
					<polygon class="st10" points="1527.6,1179.1 1493.1,1159.1 1506.3,1151.4 1540.9,1171.4 					"/>
				</g>
				<g>
					<polygon class="st10" points="1548.6,1260.5 1514,1240.5 1527.2,1232.9 1561.8,1252.8 					"/>
				</g>
				<g>
					<polygon class="st10" points="1845.8,1432 1616.2,1299.5 1629.4,1291.9 1859,1424.4 					"/>
				</g>
				<g>
					<polygon class="st11" points="1827,1386.5 1490.6,1192.3 1503.8,1184.7 1840.3,1378.9 					"/>
				</g>
				<g>
					<polygon class="st10" points="1587.9,1283.1 1563.5,1269.1 1576.8,1261.4 1601.1,1275.5 					"/>
				</g>
				<g>
					<polygon class="st11" points="1604.9,1293 1598.4,1289.2 1611.6,1281.6 1618.1,1285.3 					"/>
				</g>
				<g>
					<polygon class="st10" points="1483,1153.3 1476.5,1149.6 1489.8,1141.9 1496.2,1145.7 					"/>
				</g>
				<g>
					<polygon class="st10" points="1542,1187.3 1535.5,1183.6 1548.7,1176 1555.2,1179.7 					"/>
				</g>
				<g>
					<polygon class="st11" points="1546.1,1293.7 1530.4,1284.6 1543.6,1277 1559.3,1286 					"/>
				</g>
				<g>
					<polygon class="st11" points="1520.4,1278.8 1513.9,1275.1 1527.1,1267.4 1533.6,1271.2 					"/>
				</g>
				<g>
					<polygon class="st11" points="1560.4,1301.9 1554,1298.2 1567.2,1290.6 1573.7,1294.3 					"/>
				</g>
				<g>
					<polygon class="st11" points="1530.1,1353.7 1514.4,1344.7 1527.6,1337 1543.3,1346.1 					"/>
				</g>
				<g>
					<polygon class="st11" points="1504.4,1338.9 1497.9,1335.1 1511.1,1327.5 1517.6,1331.2 					"/>
				</g>
				<g>
					<polygon class="st11" points="1544.4,1362 1538,1358.3 1551.2,1350.6 1557.7,1354.4 					"/>
				</g>
				<g>
					<polygon class="st10" points="1504,1234.7 1497.5,1231 1510.7,1223.3 1517.2,1227.1 					"/>
				</g>
				<g>
					<polygon class="st10" points="1860.5,1509.9 1528.7,1318.3 1541.9,1310.6 1873.8,1502.2 					"/>
				</g>
				<g>
					<polygon class="st10" points="1860.1,1440.3 1853.6,1436.6 1866.8,1428.9 1873.3,1432.7 					"/>
				</g>
				<g>
					<polygon class="st11" points="1959.8,1250.9 1672.1,1084.8 1685.3,1077.1 1973,1243.3 					"/>
				</g>
				<g>
					<polygon class="st10" points="2068.2,1348.1 1642.1,1102.1 1655.3,1094.5 2081.4,1340.5 					"/>
				</g>
				<g>
					<polygon class="st10" points="1756.7,1202.9 1612.1,1119.4 1625.3,1111.8 1769.9,1195.3 					"/>
				</g>
				<g>
					<polygon class="st2" points="1873.2,854.3 1857.4,845.2 1870.7,837.6 1886.4,846.7 					"/>
				</g>
				<g>
					<polygon class="st2" points="1843.1,871.6 1827.4,862.6 1840.6,854.9 1856.4,864 					"/>
				</g>
				<g>
					<polygon class="st2" points="1813.1,889 1797.4,879.9 1810.6,872.2 1826.3,881.3 					"/>
				</g>
				<g>
					<polygon class="st2" points="1783.1,906.3 1767.4,897.2 1780.6,889.6 1796.3,898.7 					"/>
				</g>
				<g>
					<polygon class="st2" points="1753.1,923.6 1737.4,914.5 1750.6,906.9 1766.3,916 					"/>
				</g>
				<g>
					<polygon class="st2" points="1723.1,940.9 1707.4,931.9 1720.6,924.2 1736.3,933.3 					"/>
				</g>
				<g>
					<polygon class="st2" points="1693.1,958.3 1677.3,949.2 1690.6,941.6 1706.3,950.6 					"/>
				</g>
				<g>
					<polygon class="st2" points="1663.1,975.6 1647.3,966.5 1660.6,958.9 1676.3,968 					"/>
				</g>
				<g>
					<polygon class="st2" points="1633,992.9 1617.3,983.8 1630.6,976.2 1646.3,985.3 					"/>
				</g>
				<g>
					<polygon class="st2" points="1603,1010.3 1587.3,1001.2 1600.5,993.5 1616.3,1002.6 					"/>
				</g>
				<g>
					<polygon class="st2" points="1573,1027.6 1557.3,1018.5 1570.5,1010.9 1586.2,1019.9 					"/>
				</g>
				<g>
					<polygon class="st2" points="1543,1044.9 1527.3,1035.8 1540.5,1028.2 1556.2,1037.3 					"/>
				</g>
				<g>
					<polygon class="st2" points="1513,1062.2 1497.3,1053.2 1510.5,1045.5 1526.2,1054.6 					"/>
				</g>
				<g>
					<polygon class="st2" points="1483,1079.6 1467.3,1070.5 1480.5,1062.9 1496.2,1071.9 					"/>
				</g>
				<g>
					<polygon class="st2" points="1453,1096.9 1437.2,1087.8 1450.5,1080.2 1466.2,1089.3 					"/>
				</g>
				<g>
					<polygon class="st2" points="1423,1114.2 1407.2,1105.1 1420.5,1097.5 1436.2,1106.6 					"/>
				</g>
				<g>
					<polygon class="st2" points="1392.9,1131.5 1377.2,1122.5 1390.5,1114.8 1406.2,1123.9 					"/>
				</g>
			</g>
		</g>
		<polygon class="st12" points="2191.1,1793 1195.7,1218.4 1195.7,1184.9 2191.1,1759.6 		"/>
		<g>
			<polygon points="2191,1759.6 2889.3,1356.5 2889.4,1389.9 2191.1,1793 			"/>
			<polygon class="st13" points="2891.4,1388.7 2891.3,1355.3 2932.6,1331.5 2932.7,1364.9 			"/>
		</g>
	</g>
	<g id="dashboard">
		<g>
			<g id="shadow" class="st5">
				<polygon points="1061.7,2133.3 0,1520.3 602.7,1172.3 1664.5,1785.3 				"/>
			</g>
			<polygon class="st2" points="1061.7,2033.3 0,1420.3 602.7,1072.3 1664.5,1685.3 			"/>
			<polygon class="st4" points="1627.2,1706.8 565.5,1093.8 602.7,1072.3 1664.5,1685.3 			"/>
			<path class="st8" d="M611.6,1098.9c-4.1,2.4-10.8,2.4-15,0c-4.1-2.4-4.2-6.3,0-8.6c4.1-2.4,10.8-2.4,14.9,0
				C615.6,1092.7,615.7,1096.5,611.6,1098.9z"/>
			<path class="st9" d="M635.3,1112.6c-4.1,2.4-10.8,2.4-15,0c-4.1-2.4-4.2-6.3,0-8.6c4.1-2.4,10.8-2.4,14.9,0
				C639.4,1106.4,639.4,1110.2,635.3,1112.6z"/>
			<path class="st14" d="M659,1126.3c-4.1,2.4-10.8,2.4-14.9,0c-4.1-2.4-4.2-6.3,0-8.6c4.1-2.4,10.8-2.4,14.9,0
				C663.1,1120.1,663.1,1123.9,659,1126.3z"/>
		</g>
		<polygon class="st3" points="1064.7,1990.8 151,1463.3 639.3,1181.4 1553,1708.9 		"/>
		<g>
			<polygon class="st15" points="838.3,1366.2 641.7,1252.7 649.7,1248 846.4,1361.6 			"/>
		</g>
		<g>
			<polygon class="st15" points="722.5,1279.6 658.8,1242.8 666.8,1238.1 730.5,1274.9 			"/>
		</g>
		<g>
			<polygon class="st15" points="1251.5,1604.8 1054.8,1491.2 1062.8,1486.6 1259.5,1600.1 			"/>
		</g>
		<g>
			<polygon class="st9" points="779.4,1661.7 769.5,1655.9 777.5,1651.3 787.5,1657 			"/>
		</g>
		<g>
			<polygon class="st15" points="915.7,1762.7 750.2,1667.1 758.2,1662.4 923.8,1758 			"/>
		</g>
		<g>
			<polygon class="st14" points="1001.2,1789.7 991.2,1784 999.3,1779.3 1009.2,1785 			"/>
		</g>
		<g>
			<polygon class="st15" points="1137.5,1890.7 971.9,1795.1 980,1790.5 1145.5,1886.1 			"/>
		</g>
		<g>
			<polygon class="st15" points="1135.6,1518.1 1071.9,1481.3 1080,1476.7 1143.7,1513.5 			"/>
		</g>
		<g>
			<g>
				<g>
					<g>
						<g>
							<path class="st16" d="M593.7,1644.1l-307.5-177.5l346.3-200L940,1444.1L593.7,1644.1z M286.9,1466.6l306.7,177.1l345.6-199.5
								L632.5,1267L286.9,1466.6z"/>
						</g>
						<g>
							<polygon class="st16" points="642.9,1615.4 335.8,1438.1 336.2,1437.9 643.3,1615.2 							"/>
						</g>
						<g>
							<polygon class="st16" points="692.3,1586.9 385.2,1409.6 385.6,1409.4 692.7,1586.7 							"/>
						</g>
						<g>
							<polygon class="st16" points="741.8,1558.4 434.7,1381.1 435,1380.9 742.1,1558.2 							"/>
						</g>
						<g>
							<polygon class="st16" points="791.2,1529.8 484.1,1352.5 484.4,1352.3 791.6,1529.6 							"/>
						</g>
						<g>
							<polygon class="st16" points="840.6,1501.3 533.5,1324 533.9,1323.8 841,1501.1 							"/>
						</g>
						<g>
							<polygon class="st16" points="890,1472.8 582.9,1295.5 583.3,1295.2 890.4,1472.6 							"/>
						</g>
						<g>
							<polygon class="st16" points="491.5,1584.9 491.1,1584.7 837.1,1384.9 837.5,1385.1 							"/>
						</g>
						<g>
							<polygon class="st16" points="389.1,1525.8 388.7,1525.6 734.7,1325.8 735.1,1326 							"/>
						</g>
					</g>
					<g>
						<polygon class="st16" points="600.9,1266.9 600.9,1266.6 632.5,1266.7 632.5,1267 						"/>
					</g>
					<g>
						<polygon class="st16" points="551.5,1295.4 551.4,1295.1 583.1,1295.2 583.1,1295.5 						"/>
					</g>
					<g>
						<polygon class="st16" points="502,1324 502,1323.7 533.7,1323.7 533.7,1324 						"/>
					</g>
					<g>
						<polygon class="st16" points="452.6,1352.5 452.6,1352.2 484.3,1352.3 484.3,1352.6 						"/>
					</g>
					<g>
						<polygon class="st16" points="403.2,1381.1 403.2,1380.8 434.8,1380.8 434.8,1381.1 						"/>
					</g>
					<g>
						<polygon class="st16" points="353.7,1409.6 353.7,1409.3 385.4,1409.3 385.4,1409.6 						"/>
					</g>
					<g>
						<polygon class="st16" points="304.3,1438.1 304.3,1437.8 336,1437.9 336,1438.2 						"/>
					</g>
					<g>
						<path class="st16" d="M288.8,1430.6L288.8,1430.6l-2.4-0.4l0.7-0.7l3,0.5l1,0.6l-9,5.2l-1.2-0.7L288.8,1430.6z"/>
						<path class="st16" d="M296,1438.5c-3.1,1.8-5.9,2.1-7.9,0.9c-1.8-1-1.3-2.7,1.6-4.4c3-1.7,6-1.9,7.8-0.9
							C299.5,1435.3,298.9,1436.9,296,1438.5z M291,1435.8c-2.3,1.3-2.9,2.5-1.8,3.2c1.3,0.7,3.3,0.2,5.6-1.1
							c2.2-1.3,3.1-2.4,1.8-3.2C295.5,1434.1,293.4,1434.4,291,1435.8z"/>
					</g>
					<g>
						<path class="st16" d="M327.4,1405.3l0.7-0.4h1.9c4.5,0.1,6.7,0,8.1-0.8c0.9-0.5,1.3-1.3,0-2c-0.8-0.5-1.9-0.6-2.7-0.7l0.5-0.7
							c1.1,0.1,2.4,0.3,3.5,1c1.9,1.1,1.4,2.4,0.2,3.1c-1.7,1-4.2,1-7.9,1h-1.4l0,0l4.1,2.3l-1,0.6L327.4,1405.3z"/>
						<path class="st16" d="M345.1,1410.2c-3.1,1.8-5.9,2.1-7.9,0.9c-1.8-1-1.3-2.7,1.6-4.4c3-1.7,6-1.9,7.8-0.9
							C348.6,1407,348,1408.6,345.1,1410.2z M340.1,1407.5c-2.3,1.3-2.9,2.5-1.8,3.2c1.3,0.7,3.3,0.2,5.6-1.1
							c2.2-1.3,3.1-2.4,1.8-3.2C344.6,1405.8,342.5,1406.1,340.1,1407.5z"/>
					</g>
					<g>
						<path class="st16" d="M378.2,1376.3c0.1,0.3,0.6,1,1.4,1.5c1.6,0.9,3,0.6,3.8,0.2c1.2-0.7,0.6-1.7-0.5-2.4l-0.7-0.4l0.9-0.5
							l0.7,0.4c0.9,0.5,2.5,0.9,3.5,0.3c0.7-0.4,0.9-1-0.2-1.7c-0.7-0.4-1.7-0.6-2.4-0.7l0.6-0.7c0.8,0.1,2.1,0.4,3.1,1
							c1.8,1,1.5,2.1,0.4,2.7c-0.9,0.5-2.3,0.7-3.8,0.3l0,0c0.9,0.8,1,1.8-0.3,2.5c-1.4,0.8-3.8,0.9-6-0.3c-1-0.6-1.6-1.3-1.7-1.7
							L378.2,1376.3z"/>
						<path class="st16" d="M394.2,1381.9c-3.1,1.8-5.9,2.1-7.9,0.9c-1.8-1-1.3-2.7,1.6-4.4c3-1.7,6-1.9,7.8-0.9
							C397.7,1378.6,397.1,1380.2,394.2,1381.9z M389.2,1379.1c-2.3,1.3-2.9,2.5-1.8,3.2c1.3,0.7,3.3,0.2,5.6-1.1
							c2.2-1.3,3.1-2.4,1.8-3.2C393.7,1377.4,391.6,1377.7,389.2,1379.1z"/>
					</g>
					<g>
						<path class="st16" d="M429.3,1350.8l2.4-1.4l-4.2-2.4l0.8-0.5l9.8-1l1.3,0.8l-5.6,3.2l1.3,0.7l-1,0.6l-1.3-0.7l-2.4,1.4
							L429.3,1350.8z M432.7,1348.8l3-1.7c0.5-0.3,1-0.5,1.4-0.8l0,0c-0.8,0.1-1.4,0.2-2.1,0.3l-5.3,0.5l0,0L432.7,1348.8z"/>
						<path class="st16" d="M443.3,1353.5c-3.1,1.8-5.9,2.1-7.9,0.9c-1.8-1-1.3-2.7,1.6-4.4c3-1.7,6-1.9,7.8-0.9
							C446.7,1350.3,446.1,1351.9,443.3,1353.5z M438.2,1350.8c-2.3,1.3-2.9,2.5-1.8,3.2c1.3,0.7,3.3,0.2,5.6-1.1
							c2.2-1.3,3.1-2.4,1.8-3.2C442.7,1349.1,440.7,1349.4,438.2,1350.8z"/>
					</g>
					<g>
						<path class="st16" d="M488,1318.8l-3.4-2l-2.7,1.1c0.2,0.1,0.5,0.2,0.8,0.4c0.7,0.4,1.2,0.9,1.5,1.4c0.3,0.6,0.1,1.4-1,2.1
							c-1.8,1-4.5,1-6.4-0.2c-1-0.6-1.5-1.2-1.7-1.6l1.2-0.4c0.2,0.3,0.6,0.9,1.4,1.4c1.2,0.7,2.9,0.8,4.1,0.1
							c1.1-0.7,1.2-1.6-0.6-2.6c-0.5-0.3-1-0.5-1.3-0.7l4.9-2.2l4.3,2.5L488,1318.8z"/>
						<path class="st16" d="M492.3,1325.2c-3.1,1.8-5.9,2.1-7.9,0.9c-1.8-1-1.3-2.7,1.6-4.4c3-1.7,6-1.9,7.8-0.9
							C495.8,1322,495.2,1323.6,492.3,1325.2z M487.3,1322.5c-2.3,1.3-2.9,2.5-1.8,3.2c1.3,0.7,3.3,0.2,5.6-1.1
							c2.2-1.3,3.1-2.4,1.8-3.2C491.8,1320.8,489.7,1321.1,487.3,1322.5z"/>
					</g>
					<g>
						<path class="st16" d="M537,1290.2c-0.2-0.2-0.6-0.3-1-0.5c-2.2-0.9-4.6-0.7-6.3,0l0,0c1-0.1,2.2,0.1,3.2,0.7
							c1.6,0.9,1.6,2.2-0.2,3.2c-1.6,0.9-4.3,1.2-6.2,0.1s-1.7-2.7,0.6-4.1c1.8-1,3.8-1.5,5.6-1.5c1.5,0,2.9,0.3,4.2,0.9
							c0.4,0.2,0.7,0.3,1,0.5L537,1290.2z M531.5,1293c1.3-0.7,1.3-1.6,0.2-2.3c-0.7-0.4-1.9-0.6-2.9-0.4c-0.2,0-0.5,0.1-0.7,0.2
							c-1.5,0.9-1.9,1.9-0.6,2.6C528.6,1293.9,530.2,1293.8,531.5,1293z"/>
						<path class="st16" d="M541.4,1296.9c-3.1,1.8-5.9,2.1-7.9,0.9c-1.8-1-1.3-2.7,1.6-4.4c3-1.7,6-1.9,7.8-0.9
							C544.9,1293.6,544.3,1295.2,541.4,1296.9z M536.4,1294.1c-2.3,1.3-2.9,2.5-1.8,3.2c1.3,0.7,3.3,0.2,5.6-1.1
							c2.2-1.3,3.1-2.4,1.8-3.2C540.9,1292.4,538.8,1292.7,536.4,1294.1z"/>
					</g>
					<g>
						<path class="st16" d="M587.6,1261.8l-0.8,0.5l-12.1,2.4l-1.3-0.7l11.9-2.3l0,0l-4.4-2.6l1-0.6L587.6,1261.8z"/>
						<path class="st16" d="M590.5,1268.5c-3.1,1.8-5.9,2.1-7.9,0.9c-1.8-1-1.3-2.7,1.6-4.4c3-1.7,6-1.9,7.8-0.9
							C594,1265.3,593.4,1266.9,590.5,1268.5z M585.5,1265.8c-2.3,1.3-2.9,2.5-1.8,3.2c1.3,0.7,3.3,0.2,5.6-1.1
							c2.2-1.3,3.1-2.4,1.8-3.2C590,1264.1,587.9,1264.4,585.5,1265.8z"/>
					</g>
					<g>
						<path class="st16" d="M300.6,1495.8l0.7-0.4h1.9c4.5,0.1,6.7,0,8.1-0.8c0.9-0.5,1.3-1.3,0-2c-0.8-0.5-1.9-0.6-2.7-0.7l0.5-0.7
							c1.1,0.1,2.4,0.3,3.5,1c1.9,1.1,1.4,2.4,0.2,3.1c-1.7,1-4.2,1-7.9,1h-1.4l0,0l4.1,2.3l-1,0.6L300.6,1495.8z"/>
						<path class="st16" d="M318.3,1500.7c-3.1,1.8-5.9,2.1-7.9,0.9c-1.8-1-1.3-2.7,1.6-4.4c3-1.7,6-1.9,7.8-0.9
							C321.8,1497.5,321.2,1499.1,318.3,1500.7z M313.3,1498c-2.3,1.3-2.9,2.5-1.8,3.2c1.3,0.7,3.3,0.2,5.6-1.1
							c2.2-1.3,3.1-2.4,1.8-3.2C317.8,1496.2,315.7,1496.5,313.3,1498z"/>
						<path class="st16" d="M325.4,1501L325.4,1501l-2.4-0.4l0.7-0.7l3,0.5l1,0.6l-9,5.2l-1.2-0.7L325.4,1501z"/>
						<path class="st16" d="M336.8,1506.3l-0.8,0.5l-12.1,2.4l-1.3-0.7l11.9-2.3l0,0l-4.4-2.6l1-0.6L336.8,1506.3z"/>
					</g>
					<g>
						<path class="st16" d="M405,1556.1l0.7-0.4h1.9c4.5,0.1,6.7,0,8.1-0.8c0.9-0.5,1.3-1.3,0-2c-0.8-0.5-1.9-0.6-2.7-0.7l0.5-0.7
							c1.1,0.1,2.4,0.3,3.5,1c1.9,1.1,1.4,2.4,0.2,3.1c-1.7,1-4.2,1-7.9,1h-1.4l0,0l4.1,2.3l-1,0.6L405,1556.1z"/>
						<path class="st16" d="M422.8,1561c-3.1,1.8-5.9,2.1-7.9,0.9c-1.8-1-1.3-2.7,1.6-4.4c3-1.7,6-1.9,7.8-0.9
							C426.2,1557.8,425.6,1559.3,422.8,1561z M417.7,1558.2c-2.3,1.3-2.9,2.5-1.8,3.2c1.3,0.7,3.3,0.2,5.6-1.1
							c2.2-1.3,3.1-2.4,1.8-3.2C422.2,1556.5,420.2,1556.8,417.7,1558.2z"/>
						<path class="st16" d="M429.8,1561.3L429.8,1561.3l-2.4-0.4l0.7-0.7l3,0.5l1,0.6l-9,5.2l-1.2-0.7L429.8,1561.3z"/>
						<path class="st16" d="M428.6,1567c1.1-0.7,2.6-0.7,4.2-0.4l0,0c-0.5-0.8-0.2-1.5,0.6-2c1.4-0.8,3.6-0.7,5.2,0.2
							c1.8,1,1.5,2.1,0.4,2.8c-0.8,0.4-1.9,0.7-3.6,0.4l0,0c0.7,0.9,0.6,1.8-0.5,2.4c-1.6,0.9-4,0.7-5.7-0.3
							C427.3,1569.1,427.3,1567.8,428.6,1567z M433.5,1569.8c1.1-0.6,0.9-1.4,0-2.3c-1.4-0.4-2.6-0.4-3.5,0.1c-1,0.5-1.1,1.4,0.1,2
							C431.2,1570.3,432.6,1570.3,433.5,1569.8z M434.6,1565.3c-0.9,0.5-0.7,1.2,0.1,2c1,0.3,2.2,0.3,3-0.1c0.7-0.4,1-1.1-0.1-1.7
							C436.6,1564.8,435.4,1564.8,434.6,1565.3z"/>
					</g>
					<g>
						<path class="st16" d="M509.5,1616.4l0.7-0.4h1.9c4.5,0.1,6.7,0,8.1-0.8c0.9-0.5,1.3-1.3,0-2c-0.8-0.5-1.9-0.6-2.7-0.7l0.5-0.7
							c1.1,0.1,2.4,0.3,3.5,1c1.9,1.1,1.4,2.4,0.2,3.1c-1.7,1-4.2,1-7.9,1h-1.4l0,0l4.1,2.3l-1,0.6L509.5,1616.4z"/>
						<path class="st16" d="M527.2,1621.3c-3.1,1.8-5.9,2.1-7.9,0.9c-1.8-1-1.3-2.7,1.6-4.4c3-1.7,6-1.9,7.8-0.9
							C530.6,1618,530,1619.6,527.2,1621.3z M522.1,1618.5c-2.3,1.3-2.9,2.5-1.8,3.2c1.3,0.7,3.3,0.2,5.6-1.1
							c2.2-1.3,3.1-2.4,1.8-3.2C526.7,1616.8,524.6,1617.1,522.1,1618.5z"/>
						<path class="st16" d="M534.2,1621.6L534.2,1621.6l-2.4-0.4l0.7-0.7l3,0.5l1,0.6l-9,5.2l-1.2-0.7L534.2,1621.6z"/>
						<path class="st16" d="M532.4,1628.6c0.2,0.2,0.6,0.3,1,0.5c0.8,0.4,1.8,0.6,2.8,0.6c1.1,0,2.4-0.2,3.6-0.7l0,0
							c-1.1,0.1-2.2-0.1-3.1-0.7c-1.6-0.9-1.5-2.2,0.1-3.1c1.7-1,4.4-1.1,6.3-0.1c1.8,1.1,1.5,2.6-0.8,3.9c-2,1.1-4,1.6-5.8,1.5
							c-1.4,0-2.7-0.3-3.8-0.8c-0.5-0.2-0.9-0.4-1.2-0.6L532.4,1628.6z M538,1625.9c-1.1,0.6-1.2,1.5-0.2,2.1
							c0.8,0.5,1.9,0.6,2.7,0.5c0.2,0,0.4-0.1,0.6-0.2c1.5-0.9,2.1-1.9,0.9-2.6C540.9,1625.1,539.3,1625.2,538,1625.9z"/>
					</g>
					<polygon class="st17" points="533.7,1323.9 840.8,1501.2 890.2,1472.7 583.1,1295.4 					"/>
					<polygon class="st17" points="434.8,1381 741.9,1558.3 791.4,1529.7 484.3,1352.4 					"/>
					<polygon class="st17" points="336,1438 643.1,1615.3 692.5,1586.8 385.4,1409.5 					"/>
				</g>
				<g>
					<polygon class="st9" points="713.2,1379.6 575.2,1299.9 583.1,1295.4 721.1,1375 					"/>
					<polygon class="st18" points="791.5,1448.8 554.5,1311.9 562.4,1307.3 799.4,1444.2 					"/>
					<polygon class="st14" points="618.2,1372.7 533.7,1323.9 541.6,1319.3 626.1,1368.1 					"/>
					<polygon class="st9" points="725.5,1500.8 476.4,1357 484.3,1352.4 733.4,1496.3 					"/>
					<polygon class="st18" points="558,1428.1 455.6,1369 463.5,1364.4 565.9,1423.5 					"/>
					<polygon class="st14" points="639.6,1499.2 434.8,1381 442.7,1376.4 647.5,1494.6 					"/>
					<polygon class="st9" points="479.2,1473.5 376.9,1414.4 384.8,1409.9 487.1,1469 					"/>
					<polygon class="st18" points="560.9,1544.6 356.1,1426.4 364,1421.9 568.7,1540.1 					"/>
					<polygon class="st14" points="504.3,1536 335.3,1438.4 343.2,1433.8 512.2,1531.4 					"/>
				</g>
			</g>
		</g>
		<g>
			<g>
				<g>
					<polygon class="st16" points="1163.4,1790.5 1163,1790.3 1352.3,1681 1352.7,1681.2 					"/>
				</g>
				<g>
					<polygon class="st16" points="1085.8,1745.7 1085.3,1745.5 1274.7,1636.2 1275.1,1636.4 					"/>
				</g>
				<g>
					<polygon class="st16" points="1008.1,1700.9 1007.7,1700.7 1197.1,1591.3 1197.5,1591.6 					"/>
				</g>
				<g>
					<polygon class="st16" points="930.5,1656.1 930.1,1655.8 1119.4,1546.5 1119.8,1546.7 					"/>
				</g>
				<g>
					<polygon class="st17" points="1163.2,1790.4 1007.9,1700.8 1197.3,1591.5 1352.5,1681.1 					"/>
					<g>
						<g>
							<path class="st16" d="M1240.8,1835.5l-388.6-224.4l189.7-109.6l388.6,224.4L1240.8,1835.5z M853,1611.1l387.8,223.9
								l188.9-109.1L1042,1502L853,1611.1z"/>
						</g>
						<g>
							<polygon class="st16" points="1272.2,1817.1 884,1593 884.4,1592.8 1272.6,1816.9 							"/>
						</g>
						<g>
							<polygon class="st16" points="1303.7,1798.9 915.5,1574.8 915.9,1574.6 1304.2,1798.7 							"/>
						</g>
						<g>
							<polygon class="st16" points="1335.3,1780.7 947.1,1556.6 947.5,1556.3 1335.7,1780.5 							"/>
						</g>
						<g>
							<polygon class="st16" points="1366.9,1762.5 978.7,1538.4 979.1,1538.1 1367.3,1762.3 							"/>
						</g>
						<g>
							<polygon class="st16" points="1398.4,1744.3 1010.2,1520.1 1010.6,1519.9 1398.8,1744 							"/>
						</g>
						<g>
							<path class="st16" d="M847.8,1606.3c-2.8,1.6-5.4,1.9-7.2,0.8c-1.6-0.9-1.2-2.4,1.5-4s5.5-1.8,7.1-0.8
								C851,1603.4,850.4,1604.8,847.8,1606.3z M843.2,1603.8c-2.1,1.2-2.7,2.3-1.7,2.9c1.1,0.7,3,0.2,5.1-1c2-1.2,2.8-2.2,1.7-2.9
								C847.4,1602.3,845.5,1602.5,843.2,1603.8z"/>
						</g>
						<g>
							<path class="st16" d="M872.9,1580.8L872.9,1580.8l-2.2-0.4l0.6-0.6l2.8,0.5l1,0.5l-8.2,4.7l-1.1-0.6L872.9,1580.8z"/>
							<path class="st16" d="M879.5,1588.1c-2.8,1.6-5.4,1.9-7.2,0.8c-1.6-0.9-1.2-2.4,1.5-4s5.5-1.8,7.1-0.8
								C882.6,1585.1,882.1,1586.6,879.5,1588.1z M874.9,1585.6c-2.1,1.2-2.7,2.3-1.7,2.9c1.1,0.7,3,0.2,5.1-1
								c2-1.2,2.8-2.2,1.7-2.9C879,1584,877.1,1584.3,874.9,1585.6z"/>
						</g>
						<g>
							<path class="st16" d="M895,1565.3l0.7-0.4h1.7c4.1,0.1,6.1,0,7.4-0.7c0.8-0.5,1.2-1.2,0-1.9c-0.7-0.4-1.8-0.6-2.4-0.6
								l0.4-0.7c1.1,0.1,2.2,0.3,3.2,0.9c1.8,1,1.3,2.2,0.1,2.8c-1.5,0.9-3.8,0.9-7.2,0.9h-1.3l0,0l3.7,2.1l-0.9,0.5L895,1565.3z"/>
							<path class="st16" d="M911.1,1569.8c-2.8,1.6-5.4,1.9-7.2,0.8c-1.6-0.9-1.2-2.4,1.5-4s5.5-1.8,7.1-0.8
								C914.3,1566.8,913.8,1568.3,911.1,1569.8z M906.5,1567.3c-2.1,1.2-2.7,2.3-1.7,2.9c1.1,0.7,3,0.2,5.1-1
								c2-1.2,2.8-2.2,1.7-2.9C910.7,1565.7,908.8,1566,906.5,1567.3z"/>
						</g>
						<g>
							<path class="st16" d="M928.2,1546.4c0.1,0.3,0.5,0.9,1.3,1.4c1.4,0.8,2.8,0.6,3.5,0.2c1.1-0.7,0.6-1.6-0.5-2.2l-0.6-0.4
								l0.8-0.5l0.6,0.4c0.8,0.5,2.3,0.8,3.2,0.3c0.7-0.4,0.8-1-0.2-1.5c-0.7-0.4-1.6-0.6-2.2-0.6l0.5-0.6c0.7,0.1,1.9,0.4,2.8,0.9
								c1.6,0.9,1.4,1.9,0.4,2.5c-0.8,0.5-2.1,0.6-3.5,0.2l0,0c0.8,0.7,0.9,1.6-0.3,2.3c-1.3,0.8-3.5,0.8-5.5-0.3
								c-0.9-0.5-1.4-1.2-1.6-1.6L928.2,1546.4z"/>
							<path class="st16" d="M942.8,1551.5c-2.8,1.6-5.4,1.9-7.2,0.8c-1.6-0.9-1.2-2.4,1.5-4c2.8-1.6,5.5-1.8,7.1-0.8
								C946,1548.5,945.4,1550,942.8,1551.5z M938.2,1549c-2.1,1.2-2.7,2.3-1.7,2.9c1.1,0.7,3,0.2,5.1-1c2-1.2,2.8-2.2,1.7-2.9
								C942.3,1547.4,940.4,1547.7,938.2,1549z"/>
						</g>
						<g>
							<path class="st16" d="M961.7,1530.7l2.2-1.3l-3.8-2.2l0.7-0.4l8.9-0.9l1.2,0.7l-5.1,2.9l1.2,0.7l-0.9,0.5l-1.2-0.7l-2.2,1.3
								L961.7,1530.7z M964.8,1528.9l2.7-1.6c0.4-0.2,0.9-0.5,1.3-0.7l0,0c-0.7,0.1-1.3,0.2-1.9,0.3l-4.8,0.4l0,0L964.8,1528.9z"/>
							<path class="st16" d="M974.5,1533.2c-2.8,1.6-5.4,1.9-7.2,0.8c-1.6-0.9-1.2-2.4,1.5-4s5.5-1.8,7.1-0.8
								C977.6,1530.3,977.1,1531.7,974.5,1533.2z M969.8,1530.7c-2.1,1.2-2.7,2.3-1.7,2.9c1.1,0.7,3,0.2,5.1-1
								c2-1.2,2.8-2.2,1.7-2.9C974,1529.2,972.1,1529.4,969.8,1530.7z"/>
						</g>
						<g>
							<path class="st16" d="M1002.1,1509.1l-3.1-1.8l-2.4,1c0.2,0.1,0.4,0.2,0.7,0.4c0.6,0.4,1.1,0.8,1.3,1.3
								c0.3,0.6,0.1,1.3-0.9,1.9c-1.6,0.9-4.1,0.9-5.9-0.2c-0.9-0.5-1.4-1.1-1.6-1.5l1.1-0.3c0.1,0.3,0.6,0.8,1.3,1.3
								c1.1,0.6,2.6,0.7,3.7,0.1c1-0.6,1.1-1.5-0.6-2.4c-0.5-0.3-0.9-0.5-1.2-0.6l4.5-2l3.9,2.3L1002.1,1509.1z"/>
							<path class="st16" d="M1006.1,1515c-2.8,1.6-5.4,1.9-7.2,0.8c-1.6-0.9-1.2-2.4,1.5-4c2.8-1.6,5.5-1.8,7.1-0.8
								C1009.3,1512,1008.7,1513.5,1006.1,1515z M1001.5,1512.4c-2.1,1.2-2.7,2.3-1.7,2.9c1.1,0.7,3,0.2,5.1-1
								c2-1.2,2.8-2.2,1.7-2.9C1005.6,1510.9,1003.7,1511.2,1001.5,1512.4z"/>
						</g>
						<g>
							<path class="st16" d="M879.8,1638.8L879.8,1638.8l-2.1-0.4l0.6-0.6l2.6,0.5l0.9,0.5l-7.7,4.4l-1-0.6L879.8,1638.8z"/>
						</g>
						<g>
							<path class="st16" d="M948.5,1686.2l0.6-0.4h1.6c3.8,0.1,5.7,0,6.9-0.7c0.8-0.5,1.1-1.1,0-1.8c-0.7-0.4-1.6-0.5-2.3-0.6
								l0.4-0.6c1,0,2.1,0.3,3,0.8c1.7,1,1.2,2,0.1,2.7c-1.4,0.8-3.6,0.9-6.8,0.8h-1.2l0,0l3.5,2l-0.9,0.5L948.5,1686.2z"/>
						</g>
						<g>
							<path class="st16" d="M1027.6,1730.5c0.1,0.3,0.5,0.9,1.2,1.3c1.3,0.8,2.6,0.5,3.2,0.1c1.1-0.6,0.5-1.5-0.5-2l-0.6-0.3
								l0.8-0.5l0.6,0.3c0.8,0.4,2.1,0.8,3,0.2c0.6-0.4,0.8-0.9-0.2-1.5c-0.6-0.4-1.5-0.5-2.1-0.6l0.5-0.6c0.7,0.1,1.8,0.3,2.6,0.8
								c1.5,0.9,1.3,1.8,0.4,2.3c-0.8,0.5-1.9,0.6-3.2,0.2l0,0c0.8,0.7,0.8,1.5-0.2,2.1c-1.2,0.7-3.3,0.8-5.1-0.3
								c-0.9-0.5-1.4-1.1-1.5-1.5H1027.6z"/>
						</g>
						<g>
							<path class="st16" d="M1107,1777.8l2.1-1.2l-3.6-2.1l0.7-0.4l8.4-0.8l1.1,0.7l-4.8,2.8l1.1,0.6l-0.8,0.5l-1.1-0.6l-2.1,1.2
								L1107,1777.8z M1109.9,1776.1l2.6-1.5c0.4-0.2,0.8-0.5,1.2-0.7l0,0c-0.7,0.1-1.2,0.2-1.8,0.3l-4.5,0.4l0,0L1109.9,1776.1z"/>
						</g>
						<g>
							<path class="st16" d="M1192.9,1819.5l-3-1.7l-2.3,1c0.2,0.1,0.4,0.2,0.7,0.3c0.6,0.3,1.1,0.8,1.3,1.2
								c0.3,0.5,0.1,1.2-0.9,1.8c-1.5,0.9-3.8,0.8-5.5-0.1c-0.8-0.5-1.3-1-1.5-1.4l1.1-0.3c0.1,0.3,0.5,0.8,1.2,1.2
								c1,0.6,2.5,0.7,3.5,0.1s1-1.4-0.5-2.3c-0.4-0.3-0.8-0.4-1.2-0.6l4.2-1.8l3.7,2.1L1192.9,1819.5z"/>
						</g>
					</g>
				</g>
				<g>
					<g>
						<polygon class="st9" points="850.7,1612.7 852,1611 961.2,1637.6 1072.5,1662.9 1181.7,1689.8 1260.1,1735.1 1367.6,1761.6
							1366.3,1763.3 1258.2,1736.7 1179.8,1691.4 1071.3,1664.7 959.9,1639.4 						"/>
					</g>
					<g>
						<polygon class="st14" points="1038.2,1683.3 992.1,1620.2 883.6,1593.8 884.8,1592 994.6,1618.8 994.9,1619.1 1040.7,1681.8
							1146.7,1709.5 1319.3,1699.5 1319.6,1699.6 1430.8,1725.1 1429.6,1726.8 1318.8,1701.4 1146.1,1711.4 						"/>
					</g>
					<g>
						<path class="st3" d="M1323.5,1703c-2.4,1.4-6.4,1.4-8.9,0s-2.5-3.7,0-5.1c2.4-1.4,6.4-1.4,8.9,0
							C1325.9,1699.3,1325.9,1701.6,1323.5,1703z"/>
						<path class="st14" d="M1313.5,1703.7c-3.1-1.8-3.1-4.7,0-6.5s8.1-1.8,11.2,0s3.1,4.7,0,6.5S1316.5,1705.5,1313.5,1703.7z
							 M1322.3,1698.6c-1.8-1-4.7-1.1-6.5,0c-1.8,1-1.8,2.7,0,3.8c1.8,1,4.7,1,6.5,0C1324.1,1701.3,1324.1,1699.6,1322.3,1698.6z"/>
					</g>
					<g>
						<path class="st3" d="M1150.9,1713c-2.4,1.4-6.4,1.4-8.9,0s-2.5-3.7,0-5.1c2.4-1.4,6.4-1.4,8.9,0
							C1153.3,1709.3,1153.3,1711.6,1150.9,1713z"/>
						<path class="st14" d="M1140.8,1713.7c-3.1-1.8-3.1-4.7,0-6.5s8.1-1.8,11.2,0s3.1,4.7,0,6.5
							C1149,1715.5,1143.9,1715.5,1140.8,1713.7z M1149.7,1708.6c-1.8-1-4.7-1-6.5,0s-1.8,2.7,0,3.8c1.8,1,4.7,1.1,6.5,0
							S1151.5,1709.6,1149.7,1708.6z"/>
					</g>
					<g>
						<path class="st3" d="M1043.9,1685.1c-2.4,1.4-6.4,1.4-8.9,0s-2.5-3.7,0-5.1c2.4-1.4,6.4-1.4,8.9,0
							S1046.3,1683.7,1043.9,1685.1z"/>
						<path class="st14" d="M1033.9,1685.8c-3.1-1.8-3.1-4.7,0-6.5s8.1-1.8,11.2,0s3.1,4.7,0,6.5
							C1042,1687.6,1037,1687.6,1033.9,1685.8z M1042.7,1680.7c-1.8-1-4.7-1-6.5,0s-1.8,2.7,0,3.8c1.8,1,4.7,1,6.5,0
							C1044.5,1683.4,1044.5,1681.7,1042.7,1680.7z"/>
					</g>
					<g>
						<path class="st3" d="M997.8,1622.1c-2.4,1.4-6.4,1.4-8.9,0s-2.5-3.7,0-5.1c2.4-1.4,6.4-1.4,8.9,0S1000.3,1620.7,997.8,1622.1z
							"/>
						<path class="st14" d="M987.8,1622.7c-3.1-1.8-3.1-4.7,0-6.5s8.1-1.8,11.2,0c3.1,1.8,3.1,4.7,0,6.5S990.9,1624.5,987.8,1622.7z
							 M996.6,1617.6c-1.8-1-4.7-1-6.5,0s-1.8,2.7,0,3.8c1.8,1,4.7,1.1,6.5,0C998.5,1620.4,998.4,1618.7,996.6,1617.6z"/>
					</g>
					<g>
						<path class="st3" d="M1183,1692.4c-2.4,1.4-6.4,1.4-8.9,0s-2.5-3.7,0-5.1c2.4-1.4,6.4-1.4,8.9,0
							C1185.5,1688.7,1185.5,1691,1183,1692.4z"/>
						<path class="st9" d="M1173,1693c-3.1-1.8-3.1-4.7,0-6.5s8.1-1.8,11.2,0s3.1,4.7,0,6.5S1176.1,1694.8,1173,1693z
							 M1181.8,1687.9c-1.8-1-4.7-1-6.5,0s-1.8,2.7,0,3.8c1.8,1,4.7,1.1,6.5,0C1183.7,1690.7,1183.7,1689,1181.8,1687.9z"/>
					</g>
					<g>
						<path class="st3" d="M1262.4,1738.2c-2.4,1.4-6.4,1.4-8.9,0s-2.5-3.7,0-5.1c2.4-1.4,6.4-1.4,8.9,0
							C1264.8,1734.5,1264.8,1736.8,1262.4,1738.2z"/>
						<path class="st9" d="M1252.4,1738.9c-3.1-1.8-3.1-4.7,0-6.5s8.1-1.8,11.2,0s3.1,4.7,0,6.5
							C1260.5,1740.7,1255.5,1740.6,1252.4,1738.9z M1261.2,1733.8c-1.8-1-4.7-1-6.5,0s-1.8,2.7,0,3.8c1.8,1,4.7,1,6.5,0
							C1263,1736.5,1263,1734.8,1261.2,1733.8z"/>
					</g>
				</g>
			</g>
		</g>
		<polygon class="st0" points="551.5,1153.7 537.5,1145.6 544.4,1141.6 558.4,1149.7 		"/>
		<polygon class="st0" points="579.6,1190 520.1,1155.7 527,1151.7 586.5,1186 		"/>
		<polygon class="st0" points="488.8,1189.9 474.8,1181.8 481.8,1177.8 495.8,1185.9 		"/>
		<polygon class="st0" points="517,1226.2 457.4,1191.8 464.4,1187.8 523.9,1222.2 		"/>
		<polygon class="st0" points="426.2,1226 412.2,1218 419.2,1213.9 433.2,1222 		"/>
		<polygon class="st0" points="454.3,1262.4 394.8,1228 401.8,1224 461.3,1258.3 		"/>
		<polygon class="st0" points="363.6,1262.2 349.6,1254.1 356.5,1250.1 370.5,1258.2 		"/>
		<polygon class="st0" points="391.7,1298.5 332.2,1264.2 339.1,1260.1 398.7,1294.5 		"/>
		<polygon class="st0" points="301,1298.4 286.9,1290.3 293.9,1286.3 307.9,1294.3 		"/>
		<polygon class="st0" points="329.1,1334.7 269.5,1300.3 276.5,1296.3 336,1330.7 		"/>
		<polygon class="st0" points="238.3,1334.5 224.3,1326.4 231.3,1322.4 245.3,1330.5 		"/>
		<polygon class="st0" points="266.4,1370.8 206.9,1336.5 213.9,1332.5 273.4,1366.8 		"/>
	</g>
	<g>
		<polygon class="st0" points="674.4,1009.5 519.5,920.1 571.7,889.9 726.6,979.4 		"/>
		<polygon class="st0" points="844.4,1107.7 689.5,1018.2 741.7,988.1 896.7,1077.5 		"/>
	</g>
	<g>
		<polygon class="st0" points="2416.8,949.7 2261.9,860.2 2314.1,830.1 2469.1,919.5 		"/>
		<polygon class="st0" points="2586.9,1047.9 2431.9,958.4 2484.1,928.2 2639.1,1017.7 		"/>
	</g>
	<g>
		<circle class="st0" cx="2090.9" cy="739.8" r="35.9"/>
		<circle class="st0" cx="2177.3" cy="739.8" r="35.9"/>
		<circle class="st0" cx="2272.1" cy="739.8" r="35.9"/>
		<circle class="st0" cx="2358.5" cy="739.8" r="35.9"/>
	</g>
	<g id="stats">
		<g class="st5">
			<polygon points="994.9,1876.2 524.7,1604.8 991.9,1335.1 1462,1606.5 			"/>
		</g>
		<polygon class="st3" points="994.9,1786.2 524.7,1514.8 991.9,1245.1 1462,1516.5 		"/>
		<g>
			<polygon class="st15" points="1135,1436.6 938.3,1323 946.4,1318.4 1143,1432 			"/>
		</g>
		<g>
			<polygon class="st9" points="663,1493.5 653,1487.8 661.1,1483.1 671,1488.9 			"/>
		</g>
		<g>
			<polygon class="st15" points="799.3,1594.5 633.7,1498.9 641.7,1494.3 807.3,1589.9 			"/>
		</g>
		<g>
			<polygon class="st14" points="884.7,1621.5 874.8,1615.8 882.8,1611.2 892.8,1616.9 			"/>
		</g>
		<g>
			<polygon class="st15" points="1021,1722.5 855.5,1627 863.5,1622.3 1029,1717.9 			"/>
		</g>
		<g>
			<polygon class="st15" points="1019.2,1349.9 955.5,1313.2 963.5,1308.5 1027.2,1345.3 			"/>
		</g>
		<g>
			<g>
				<g>
					<polygon class="st16" points="1046.9,1622.4 1046.5,1622.1 1235.9,1512.8 1236.3,1513.1 					"/>
				</g>
				<g>
					<polygon class="st16" points="969.3,1577.6 968.9,1577.3 1158.2,1468 1158.6,1468.2 					"/>
				</g>
				<g>
					<polygon class="st16" points="891.7,1532.7 891.2,1532.5 1080.6,1423.2 1081,1423.4 					"/>
				</g>
				<g>
					<polygon class="st16" points="814,1487.9 813.6,1487.7 1002.9,1378.4 1003.3,1378.6 					"/>
				</g>
				<g>
					<polygon class="st17" points="1046.7,1622.3 891.4,1532.6 1080.8,1423.3 1236.1,1512.9 					"/>
					<g>
						<g>
							<path class="st16" d="M1124.4,1667.3L735.8,1443l189.7-109.6l388.6,224.4L1124.4,1667.3z M736.6,1443l387.8,223.9
								l188.9-109.1l-387.8-223.9L736.6,1443z"/>
						</g>
						<g>
							<polygon class="st16" points="1155.7,1649 767.5,1424.9 767.9,1424.6 1156.1,1648.8 							"/>
						</g>
						<g>
							<polygon class="st16" points="1187.3,1630.8 799.1,1406.6 799.5,1406.4 1187.7,1630.5 							"/>
						</g>
						<g>
							<polygon class="st16" points="1218.8,1612.6 830.6,1388.4 831,1388.2 1219.2,1612.3 							"/>
						</g>
						<g>
							<polygon class="st16" points="1250.4,1594.3 862.2,1370.2 862.6,1370 1250.8,1594.1 							"/>
						</g>
						<g>
							<polygon class="st16" points="1282,1576.1 893.8,1352 894.2,1351.7 1282.4,1575.9 							"/>
						</g>
						<g>
							<path class="st16" d="M731.4,1438.2c-2.8,1.6-5.4,1.9-7.2,0.8c-1.6-0.9-1.2-2.4,1.5-4s5.5-1.8,7.1-0.8
								C734.5,1435.2,734,1436.7,731.4,1438.2z M726.8,1435.7c-2.1,1.2-2.7,2.3-1.7,2.9c1.1,0.7,3,0.2,5.1-1c2-1.2,2.8-2.2,1.7-2.9
								C730.9,1434.1,729,1434.4,726.8,1435.7z"/>
						</g>
						<g>
							<path class="st16" d="M756.4,1412.7L756.4,1412.7l-2.2-0.4l0.6-0.6l2.8,0.5l1,0.5l-8.2,4.7l-1.1-0.6L756.4,1412.7z"/>
							<path class="st16" d="M763,1419.9c-2.8,1.6-5.4,1.9-7.2,0.8c-1.6-0.9-1.2-2.4,1.5-4s5.5-1.8,7.1-0.8
								C766.2,1416.9,765.6,1418.4,763,1419.9z M758.4,1417.4c-2.1,1.2-2.7,2.3-1.7,2.9c1.1,0.7,3,0.2,5.1-1c2-1.2,2.8-2.2,1.7-2.9
								C762.5,1415.8,760.6,1416.1,758.4,1417.4z"/>
						</g>
						<g>
							<path class="st16" d="M778.5,1397.1l0.7-0.4h1.7c4.1,0.1,6.1,0,7.4-0.7c0.8-0.5,1.2-1.2,0-1.9c-0.7-0.4-1.8-0.6-2.4-0.6
								l0.4-0.7c1.1,0.1,2.2,0.3,3.2,0.9c1.8,1,1.3,2.2,0.1,2.8c-1.5,0.9-3.8,0.9-7.2,0.9h-1.3l0,0l3.7,2.1l-0.9,0.5L778.5,1397.1z"
								/>
							<path class="st16" d="M794.7,1401.6c-2.8,1.6-5.4,1.9-7.2,0.8c-1.6-0.9-1.2-2.4,1.5-4s5.5-1.8,7.1-0.8
								C797.8,1398.7,797.3,1400.1,794.7,1401.6z M790.1,1399.1c-2.1,1.2-2.7,2.3-1.7,2.9c1.1,0.7,3,0.2,5.1-1
								c2-1.2,2.8-2.2,1.7-2.9C794.2,1397.6,792.3,1397.8,790.1,1399.1z"/>
						</g>
						<g>
							<path class="st16" d="M811.7,1378.3c0.1,0.3,0.5,0.9,1.3,1.4c1.4,0.8,2.8,0.6,3.5,0.2c1.1-0.7,0.6-1.6-0.5-2.2l-0.6-0.4
								l0.8-0.5l0.6,0.4c0.8,0.5,2.3,0.8,3.2,0.3c0.7-0.4,0.8-1-0.2-1.5c-0.7-0.4-1.6-0.6-2.2-0.6l0.5-0.6c0.7,0.1,1.9,0.4,2.8,0.9
								c1.6,0.9,1.4,1.9,0.4,2.5c-0.8,0.5-2.1,0.6-3.5,0.2l0,0c0.8,0.7,0.9,1.6-0.3,2.3c-1.3,0.8-3.5,0.8-5.5-0.3
								c-0.9-0.5-1.4-1.2-1.6-1.6L811.7,1378.3z"/>
							<path class="st16" d="M826.3,1383.4c-2.8,1.6-5.4,1.9-7.2,0.8c-1.6-0.9-1.2-2.4,1.5-4c2.8-1.6,5.5-1.8,7.1-0.8
								C829.5,1380.4,829,1381.8,826.3,1383.4z M821.7,1380.8c-2.1,1.2-2.7,2.3-1.7,2.9c1.1,0.7,3,0.2,5.1-1c2-1.2,2.8-2.2,1.7-2.9
								C825.9,1379.3,824,1379.6,821.7,1380.8z"/>
						</g>
						<g>
							<path class="st16" d="M845.3,1362.6l2.2-1.3l-3.8-2.2l0.7-0.4l8.9-0.9l1.2,0.7l-5.1,2.9l1.2,0.7l-0.9,0.5l-1.2-0.7l-2.2,1.3
								L845.3,1362.6z M848.4,1360.8l2.7-1.6c0.4-0.2,0.9-0.5,1.3-0.7l0,0c-0.7,0.1-1.3,0.2-1.9,0.3l-4.8,0.4l0,0L848.4,1360.8z"/>
							<path class="st16" d="M858,1365.1c-2.8,1.6-5.4,1.9-7.2,0.8c-1.6-0.9-1.2-2.4,1.5-4s5.5-1.8,7.1-0.8
								C861.2,1362.1,860.6,1363.6,858,1365.1z M853.4,1362.6c-2.1,1.2-2.7,2.3-1.7,2.9c1.1,0.7,3,0.2,5.1-1c2-1.2,2.8-2.2,1.7-2.9
								C857.5,1361,855.6,1361.3,853.4,1362.6z"/>
						</g>
						<g>
							<path class="st16" d="M885.7,1340.9l-3.1-1.8l-2.4,1c0.2,0.1,0.4,0.2,0.7,0.4c0.6,0.4,1.1,0.8,1.3,1.3
								c0.3,0.6,0.1,1.3-0.9,1.9c-1.6,0.9-4.1,0.9-5.9-0.2c-0.9-0.5-1.4-1.1-1.6-1.5l1.1-0.3c0.1,0.3,0.6,0.8,1.3,1.3
								c1.1,0.6,2.6,0.7,3.7,0.1c1-0.6,1.1-1.5-0.6-2.4c-0.5-0.3-0.9-0.5-1.2-0.6l4.5-2l3.9,2.3L885.7,1340.9z"/>
							<path class="st16" d="M889.7,1346.8c-2.8,1.6-5.4,1.9-7.2,0.8c-1.6-0.9-1.2-2.4,1.5-4c2.8-1.6,5.5-1.8,7.1-0.8
								C892.8,1343.8,892.3,1345.3,889.7,1346.8z M885,1344.3c-2.1,1.2-2.7,2.3-1.7,2.9c1.1,0.7,3,0.2,5.1-1c2-1.2,2.8-2.2,1.7-2.9
								C889.2,1342.7,887.3,1343,885,1344.3z"/>
						</g>
						<g>
							<path class="st16" d="M763.3,1470.7L763.3,1470.7l-2.1-0.4l0.6-0.6l2.6,0.5l0.9,0.5l-7.7,4.4l-1-0.6L763.3,1470.7z"/>
						</g>
						<g>
							<path class="st16" d="M832,1518.1l0.6-0.4h1.6c3.8,0.1,5.7,0,6.9-0.7c0.8-0.5,1.1-1.1,0-1.8c-0.7-0.4-1.6-0.5-2.3-0.6
								l0.4-0.6c1,0,2.1,0.3,3,0.8c1.7,1,1.2,2,0.1,2.7c-1.4,0.8-3.6,0.9-6.8,0.8h-1.2l0,0l3.5,2l-0.9,0.5L832,1518.1z"/>
						</g>
						<g>
							<path class="st16" d="M911.1,1562.4c0.1,0.3,0.5,0.9,1.2,1.3c1.3,0.8,2.6,0.5,3.2,0.1c1.1-0.6,0.5-1.5-0.5-2l-0.6-0.3
								l0.8-0.5l0.6,0.3c0.8,0.4,2.1,0.8,3,0.2c0.6-0.4,0.8-0.9-0.2-1.5c-0.6-0.4-1.5-0.5-2.1-0.6l0.5-0.6c0.7,0.1,1.8,0.3,2.6,0.8
								c1.5,0.9,1.3,1.8,0.4,2.3c-0.8,0.5-1.9,0.6-3.2,0.2l0,0c0.8,0.7,0.8,1.5-0.2,2.1c-1.2,0.7-3.3,0.8-5.1-0.3
								c-0.9-0.5-1.4-1.1-1.5-1.5H911.1z"/>
						</g>
						<g>
							<path class="st16" d="M990.5,1609.6l2.1-1.2l-3.6-2.1l0.7-0.4l8.4-0.8l1.1,0.7l-4.8,2.8l1.1,0.6l-0.8,0.5l-1.1-0.6l-2.1,1.2
								L990.5,1609.6z M993.5,1607.9l2.6-1.5c0.4-0.2,0.8-0.5,1.2-0.7l0,0c-0.7,0.1-1.2,0.2-1.8,0.3l-4.5,0.4l0,0L993.5,1607.9z"/>
						</g>
						<g>
							<path class="st16" d="M1076.4,1651.3l-3-1.7l-2.3,1c0.2,0.1,0.4,0.2,0.7,0.3c0.6,0.3,1.1,0.8,1.3,1.2
								c0.3,0.5,0.1,1.2-0.9,1.8c-1.5,0.9-3.8,0.8-5.5-0.1c-0.8-0.5-1.3-1-1.5-1.4l1.1-0.3c0.1,0.3,0.5,0.8,1.2,1.2
								c1,0.6,2.5,0.7,3.5,0.1s1-1.4-0.5-2.3c-0.4-0.3-0.8-0.4-1.2-0.6l4.2-1.8l3.7,2.1L1076.4,1651.3z"/>
						</g>
					</g>
				</g>
				<g>
					<g>
						<polygon class="st9" points="734.2,1444.6 735.5,1442.8 844.7,1469.4 956.1,1494.8 1065.2,1521.7 1143.6,1566.9
							1251.1,1593.4 1249.9,1595.1 1141.7,1568.5 1063.4,1523.3 954.8,1496.5 843.5,1471.2 						"/>
					</g>
					<g>
						<polygon class="st14" points="921.7,1515.1 875.7,1452.1 767.1,1425.6 768.4,1423.9 878.2,1450.6 878.4,1451 924.3,1513.7
							1030.2,1541.3 1202.8,1531.3 1203.2,1531.4 1314.3,1556.9 1313.1,1558.7 1202.3,1533.3 1029.7,1543.3 						"/>
					</g>
					<g>
						<path class="st3" d="M1207,1534.9c-2.4,1.4-6.4,1.4-8.9,0s-2.5-3.7,0-5.1c2.4-1.4,6.4-1.4,8.9,0
							C1209.4,1531.2,1209.4,1533.5,1207,1534.9z"/>
						<path class="st14" d="M1197,1535.5c-3.1-1.8-3.1-4.7,0-6.5s8.1-1.8,11.2,0s3.1,4.7,0,6.5S1200.1,1537.3,1197,1535.5z
							 M1205.8,1530.4c-1.8-1-4.7-1.1-6.5,0c-1.8,1-1.8,2.7,0,3.8c1.8,1,4.7,1,6.5,0C1207.6,1533.2,1207.6,1531.5,1205.8,1530.4z"/>
					</g>
					<g>
						<path class="st3" d="M1034.4,1544.9c-2.4,1.4-6.4,1.4-8.9,0s-2.5-3.7,0-5.1c2.4-1.4,6.4-1.4,8.9,0
							C1036.8,1541.2,1036.8,1543.5,1034.4,1544.9z"/>
						<path class="st14" d="M1024.4,1545.5c-3.1-1.8-3.1-4.7,0-6.5s8.1-1.8,11.2,0s3.1,4.7,0,6.5S1027.5,1547.3,1024.4,1545.5z
							 M1033.2,1540.4c-1.8-1-4.7-1-6.5,0s-1.8,2.7,0,3.8c1.8,1,4.7,1.1,6.5,0C1035,1543.2,1035,1541.5,1033.2,1540.4z"/>
					</g>
					<g>
						<path class="st3" d="M927.4,1517c-2.4,1.4-6.4,1.4-8.9,0s-2.5-3.7,0-5.1c2.4-1.4,6.4-1.4,8.9,0S929.9,1515.6,927.4,1517z"/>
						<path class="st14" d="M917.4,1517.6c-3.1-1.8-3.1-4.7,0-6.5s8.1-1.8,11.2,0c3.1,1.8,3.1,4.7,0,6.5
							C925.5,1519.4,920.5,1519.4,917.4,1517.6z M926.3,1512.5c-1.8-1-4.7-1-6.5,0s-1.8,2.7,0,3.8c1.8,1,4.7,1,6.5,0
							C928.1,1515.2,928.1,1513.6,926.3,1512.5z"/>
					</g>
					<g>
						<path class="st3" d="M881.4,1453.9c-2.4,1.4-6.4,1.4-8.9,0s-2.5-3.7,0-5.1c2.4-1.4,6.4-1.4,8.9,0
							C883.8,1450.2,883.8,1452.5,881.4,1453.9z"/>
						<path class="st14" d="M871.3,1454.6c-3.1-1.8-3.1-4.7,0-6.5s8.1-1.8,11.2,0c3.1,1.8,3.1,4.7,0,6.5
							C879.5,1456.4,874.4,1456.4,871.3,1454.6z M880.2,1449.5c-1.8-1-4.7-1-6.5,0s-1.8,2.7,0,3.8c1.8,1,4.7,1.1,6.5,0
							C882,1452.2,882,1450.5,880.2,1449.5z"/>
					</g>
					<g>
						<path class="st3" d="M1066.6,1524.2c-2.4,1.4-6.4,1.4-8.9,0s-2.5-3.7,0-5.1c2.4-1.4,6.4-1.4,8.9,0
							C1069,1520.5,1069,1522.8,1066.6,1524.2z"/>
						<path class="st9" d="M1056.5,1524.9c-3.1-1.8-3.1-4.7,0-6.5s8.1-1.8,11.2,0s3.1,4.7,0,6.5
							C1064.7,1526.7,1059.6,1526.7,1056.5,1524.9z M1065.4,1519.8c-1.8-1-4.7-1-6.5,0s-1.8,2.7,0,3.8c1.8,1,4.7,1.1,6.5,0
							C1067.2,1522.5,1067.2,1520.8,1065.4,1519.8z"/>
					</g>
					<g>
						<path class="st3" d="M1145.9,1570c-2.4,1.4-6.4,1.4-8.9,0s-2.5-3.7,0-5.1c2.4-1.4,6.4-1.4,8.9,0
							C1148.4,1566.4,1148.4,1568.6,1145.9,1570z"/>
						<path class="st9" d="M1135.9,1570.7c-3.1-1.8-3.1-4.7,0-6.5s8.1-1.8,11.2,0s3.1,4.7,0,6.5S1139,1572.5,1135.9,1570.7z
							 M1144.7,1565.6c-1.8-1-4.7-1-6.5,0s-1.8,2.7,0,3.8c1.8,1,4.7,1,6.5,0C1146.6,1568.3,1146.6,1566.6,1144.7,1565.6z"/>
					</g>
				</g>
			</g>
		</g>
		<g>
			<g>
				<g>
					<g>
						<g>
							<g>
								<path class="st19" d="M1026.4,1312.4c-5.6,0.4-15.9-1.9-18.9-5.5c-0.5-0.6-0.8-1.2-1.6-1.7c-0.3-0.2-0.8-0.4-1-0.6
									c-0.5-0.5-0.1-1.1,0.1-1.7c0.4-1.2-0.6-3-1.6-4.5c-1.3-2-2.3-2.3-4.9-2.2c-1.1,0-2.1,0.1-3.2,0.2c-1,0.1-1,0-1.9,0.2
									c-0.9,0.3-1.8,0.8-2.2,1.3s-0.3,1.2-0.2,1.7c0.3,0.9,0,1.8,0.2,2.7c0.5,1.6,2.8,2.7,4.2,4.1c0.6,0.6,1.1,1.4,1.7,2
									c1.9,2.1,5.6,3.5,9.5,4.1C1012.9,1313.6,1023.8,1313.2,1026.4,1312.4z"/>
							</g>
						</g>
						<g>
							<g>
								<path class="st20" d="M991,1302.3c-0.3-0.9,0-1.8-0.2-2.7c-0.1-0.4-0.2-0.9,0-1.4c0,0,0,0-0.1,0c0.3-0.8,1.6-1.4,2.4-1.6
									c0.6-0.2,4.4-0.3,5.1-0.4c1.5-0.1,2.8,0,3.9,1c-0.6-0.2-1.2-0.3-1.9-0.3c-0.8-0.1-1.9,0-2.2,0.5c-0.1,0.2-0.2,0.3-0.2,0.5
									c-0.1,0.5,0.5,0.9-0.3,1.4c-0.2-0.7-1.3-1.3-2.4-1.5c-0.7-0.1-1.4,0.2-1.4,0.6c0,0.3,0,0.6,0.1,0.8c0.3,0.9,0,1.8,0.2,2.7
									c0.5,1.6,2.8,2.7,4.2,4.1c1.2,1.2,2.5,4.6,11.2,6.2c5.1,0.9,12.5,0.7,15.8,0.5c-2,0.4-22.2,2.4-28.5-4.2
									c-0.6-0.7-1.1-1.4-1.7-2C993.9,1305,991.6,1303.9,991,1302.3z"/>
							</g>
						</g>
						<g class="st21">
							<g>
								<g>
									<path class="st3" d="M1005.6,1306.6c-0.5-0.6-0.9-1.3-1.7-1.8c-0.4-0.2-0.8-0.4-1-0.6c-0.5-0.5-0.1-1.2,0.1-1.7
										c0.3-0.9-0.1-1.9-0.6-2.8c-0.3-0.6-0.7-1.3-1.1-1.9c-0.4-0.6-0.8-1.2-1.5-1.7c2,0.1,2.8,1.1,3.5,2.2c1,1.5,2,3.2,1.6,4.5
										c-0.2,0.6-0.6,1.2-0.1,1.7c0.2,0.2,0.7,0.4,1,0.6c1.8,1.1,1.4,4.1,11.8,6.4c2.3,0.5,4.8,0.9,7.2,0.9
										C1019.2,1312.7,1008.7,1310.5,1005.6,1306.6z"/>
								</g>
							</g>
						</g>
						<g class="st22">
							<g>
								<g>
									<path class="st3" d="M1000.9,1300.9c0-0.2-0.1-0.3-0.2-0.5c-0.2-0.1-0.5-0.2-0.8-0.1c-0.4,0.1-0.7,0.2-0.9,0.4
										c-1,0.9,0,2.7,2,2.9C999.9,1303.1,1001.1,1302.5,1000.9,1300.9z"/>
								</g>
							</g>
						</g>
						<g>
							<g>
								<g>
									<path class="st23" d="M991,1302.3c-0.3-0.9,0-1.8-0.2-2.7c-0.2-0.5-0.2-1.1,0.2-1.7c0.4-0.5,1.3-1.1,2.2-1.3
										c0.9-0.3,0.9-0.1,2-0.2c-0.2,0-0.4,0.1-0.7,0.2c-0.9,0.3-1.8,0.8-2.2,1.3s-0.3,1.2-0.2,1.7c0.3,0.9,0,1.8,0.2,2.7
										c0.5,1.6,2.8,2.7,4.2,4.1c2,2.1,3.7,7.5,24.8,6.7c-4.5,0.2-10.4,0.3-14.9-0.5c-3.9-0.7-7.6-2.1-9.5-4.1
										c-0.6-0.7-1.1-1.4-1.7-2C993.8,1305,991.5,1303.8,991,1302.3z"/>
								</g>
							</g>
							<g>
								<g>
									<path class="st23" d="M995.5,1296.4c1.3-0.1,2.4-0.1,3.1-0.2c-0.7,0-1.5,0.1-2.2,0.1C996,1296.4,995.7,1296.4,995.5,1296.4
										z"/>
								</g>
							</g>
						</g>
						<g>
							<g>
								<path class="st20" d="M1005,1305.3c-0.3-0.2-0.8-0.4-1-0.6c-0.5-0.5-0.1-1.1,0.1-1.7c0.3-0.9-0.1-1.8-0.5-2.6
									c-0.3-0.6-0.7-1.2-1.1-1.8c-0.5-0.7-1.1-1.6-2.3-2c-0.2-0.1-0.3-0.3-0.5-0.4c2,0.1,2.8,1.1,3.5,2.2c1,1.5,2,3.2,1.6,4.5
									c-0.2,0.6-0.6,1.2-0.1,1.7c0.2,0.2,0.7,0.4,1,0.6c0.8,0.5,1.1,1.1,1.6,1.7c3,3.7,12.8,5.6,17.4,5.6
									c-2.9,0.1-5.9-0.3-8.6-0.9C1006.6,1309.4,1006.8,1306.3,1005,1305.3z"/>
							</g>
						</g>
						<g>
							<g>
								<path class="st24" d="M994.1,1295.7c1.3-0.6,2-1.8,2.3-2.5c0.1-0.7,0.4-1.4,0.5-2.1c0.1-0.9-0.5-1.6-0.7-2.5
									c-0.1-0.3,0.8-0.4,0.9-0.1c0.3,1.1,1,1.1,0.6,2.9c-0.2,1-1.1,3.7,1.4,4c0.6,0.1,0.1,0.5-0.5,0.4c-0.3,0-0.5-0.1-0.7-0.1
									C997,1295.7,993.3,1296,994.1,1295.7z"/>
							</g>
						</g>
						<g>
							<g>
								<g>
									<path class="st25" d="M994.1,1295.7c1.3-0.6,2-1.8,2.3-2.5c0.1-0.7,0.4-1.4,0.5-2.1c0.1-0.9-0.5-1.6-0.7-2.5
										c-0.1-0.3,0.6-0.4,0.8-0.2c-1.1,0.1,0.5,1.4,0.3,2.8c-0.1,0.7-0.3,1.4-0.5,2.2c-0.3,0.7-0.9,1.9-2.2,2.5
										C994.1,1295.8,993.8,1295.8,994.1,1295.7z"/>
								</g>
							</g>
						</g>
						<g>
							<g>
								<path class="st24" d="M1002.7,1297.6c-1-1-4.3-1.5-5-0.7c-0.5,0.6,0.4,1-0.4,1.5c-0.2-0.5-1-1.1-2-1.2
									c-0.5-0.1-1.1,0-1.6,0.1c-0.7,0.1-2,0.2-2.7,0.4c0.5-0.8,1.5-1.5,2.7-2c1.4-0.5,3.1-0.7,4.7-0.5c0.5,0,1.3,0.2,1.7,0.3
									c0.2,0.1,0.4,0.1,0.6,0.2C1001.9,1296.1,1002.7,1296.9,1002.7,1297.6L1002.7,1297.6z"/>
							</g>
						</g>
						<g>
							<g>
								<path class="st26" d="M999.5,1295.4c-3.8,0.3-4.6,0.9-5.1,1.9c-0.3,0-2.9,0.4-3.3,0.5
									C992.1,1295.9,995.4,1294.7,999.5,1295.4z"/>
							</g>
						</g>
						<g>
							<g>
								<path class="st25" d="M991.9,1297.6c-0.3,0-0.6,0.1-0.8,0.1c1-1.7,3.8-2.8,7.1-2.5C995.2,1295.2,992.8,1296.2,991.9,1297.6z
									"/>
							</g>
						</g>
						<g>
							<g>
								<g>
									<path class="st27" d="M996.4,1295.2c1.6-0.1,3.3,0.2,3.8,0.3c0.2,0.1,0.4,0.1,0.6,0.2c1.1,0.4,1.9,1.2,2,1.9l0,0
										c-0.3-0.3-0.9-0.6-1.5-0.8C1000.4,1295.7,998.5,1295.3,996.4,1295.2z"/>
								</g>
							</g>
						</g>
					</g>
					<g>
						<g>
							<path class="st28" d="M997.6,1295.5c-0.7-0.3-2.4-0.2-2.1,0.4h0.1c0.3,0,0.4-0.1,0.6-0.1c0.2,0,0.2-0.1,0.4-0.2
								c0.2,0,0.3-0.1,0.5-0.1C997.2,1295.5,997.4,1295.5,997.6,1295.5L997.6,1295.5z"/>
						</g>
					</g>
					<g>
						<g>
							<g>
								<path class="st23" d="M1026.9,1312.4c-2.5,1-6.1,0.8-9,0.8c-16.7,0.1-18.4-4.2-21-6.2c-2-1.6-3.9-1.7-4.6-4.8
									c-0.3-1.2-0.5-2.4-0.8-3.6c-0.1-0.3,0.6-0.3,0.7-0.1c0.5,2.3,0.3,5,3.1,6.8c1.2,0.8,2.4,1.6,3.4,2.5
									c1.7,1.7,4.7,4.6,15.4,4.9c2.2,0.1,4.4,0,6.6,0c2,0,4.1,0,5.8-0.7C1026.8,1311.9,1027.3,1312.3,1026.9,1312.4L1026.9,1312.4
									z"/>
							</g>
						</g>
					</g>
					<g>
						<g>
							<g>
								<path class="st23" d="M993.4,1298.3c-0.3,0.2-0.5,0.5-0.6,0.8c-0.1,0.2-0.6,0.3-0.9,0.2c-0.4-0.1-0.5-0.3-0.4-0.5
									c0.2-0.3,0.5-0.7,0.8-1c0.2-0.2,0.7-0.2,1-0.1C993.5,1297.9,993.6,1298.2,993.4,1298.3L993.4,1298.3z"/>
							</g>
						</g>
					</g>
					<g>
						<g>
							<g>
								<path class="st23" d="M995.1,1299.7c-0.3,0.6-0.3,1.2-0.1,1.8c0.2,0.5-1.1,0.6-1.4,0.1c-0.3-0.7-0.3-1.5,0.1-2.2
									C994.1,1298.9,995.4,1299.2,995.1,1299.7L995.1,1299.7z"/>
							</g>
						</g>
					</g>
					<g>
						<g>
							<g>
								<path class="st29" d="M1005,1306.9c-0.2-0.6-0.8-1-1.6-1.4c-0.4-0.2,0.1-0.5,0.4-0.3c0.9,0.4,1.6,1,1.9,1.6
									C1005.8,1307.1,1005.1,1307.2,1005,1306.9L1005,1306.9z"/>
							</g>
						</g>
					</g>
					<g>
						<g>
							<path class="st30" d="M997.7,1289.9c0.2,1.2-0.2,2.2-0.3,3.5c0,0.4-0.1,0.8,0.1,1.2c0.5,1,1.9,1.1,3,1.6
								c0.5,0.2,0.9,0.5,1.3,0.8c0.4,0.3,0.7,0.6,1.1,1l0,0c-0.2-0.4-0.3-0.8-0.6-1.1c-0.3-0.4-0.8-0.7-1.3-0.9
								c-0.3-0.1-0.6-0.2-0.9-0.3c-0.3-0.1-0.6-0.2-0.9-0.3C996.6,1294.4,998.6,1292.3,997.7,1289.9L997.7,1289.9z"/>
						</g>
					</g>
				</g>
				<g>
					<g>
						<path class="st30" d="M996.8,1297.9c-0.1-0.3-0.6-0.7-1.8-0.8c-0.7-0.1-1.6-0.1-2.4,0c-1.2,0.2-2.1,0.6-3.2,0.5
							c-0.4,0-0.7-0.1-1-0.3c0.3,0.4,1.2,0.6,2.1,0.5c1.4-0.1,1.9-0.5,4.3-0.5c0.4,0,0.7,0,1.1,0.1
							C996.3,1297.6,996.6,1297.7,996.8,1297.9z"/>
					</g>
				</g>
				<g>
					<g>
						<path class="st28" d="M996.2,1288.3c0.7,2.9-0.1,5.9-1.2,6.7c-0.6,0.4-1.6,0.7-2.5,1.2c-0.5,0.3-1,0.7-1.2,1.1
							c0.8-0.8,2.1-1.2,3.2-1.6c0.8-0.3,1.2-0.5,1.6-1c0.3-0.4,0.5-0.8,0.7-1.2C997.4,1291.5,997.1,1289.7,996.2,1288.3z"/>
					</g>
				</g>
			</g>
			<g>
				<g>
					<path class="st30" d="M996.8,1288c-0.5,0.3-0.8,0-0.8,0.4l0,0c0.1,0.1,0.3,0.1,0.4,0.1c0.1,0,0.4-0.2,0.4-0.3
						C996.9,1288.1,996.9,1288.1,996.8,1288L996.8,1288z"/>
				</g>
			</g>
		</g>
	</g>
	<g id="phone">
		<g>
			<g>
				<g>
					<g>
						<g id="shadow_1_" class="st5">
							<path d="M1035.6,1193.4L494.7,881.2c-33.3-19.2-33.3-67.4,0-86.6l1174.1-677.9c15.5-8.9,34.5-8.9,50,0L2259.7,429
								c33.3,19.2,33.3,67.4,0,86.6l-1174.1,677.9C1070.2,1202.4,1051.1,1202.4,1035.6,1193.4z"/>
						</g>
						<path class="st0" d="M1035.6,1083.4L494.7,771.2c-33.3-19.2-33.3-67.4,0-86.6L1668.8,6.7c15.5-8.9,34.5-8.9,50,0L2259.7,319
							c33.3,19.2,33.3,67.4,0,86.6l-1174.1,677.9C1070.2,1092.4,1051.1,1092.4,1035.6,1083.4z"/>
						<path class="st4" d="M1035.5,1016.1L512.8,714.3c-14.3-8.3-14.4-21.7-0.2-29.9L1668.7,16.9c14.3-8.2,37.5-8.2,51.8,0.1
							l211.7,122.2c2.5,1.4,3.8,3.4,3.6,5.4l-3.1,29.1c-1.3,12.7,17,23.3,39,22.5l50.3-1.8c3.5-0.1,6.9,0.6,9.4,2.1l211.7,122.2
							c14.3,8.3,14.4,21.7,0.2,29.9l-1156.1,667.5C1073,1024.4,1049.8,1024.4,1035.5,1016.1z"/>
					</g>
					<g>
						<g>

								<ellipse transform="matrix(0.8633 -0.5047 0.5047 0.8633 -357.1996 544.868)" class="st31" cx="827.2" cy="931.8" rx="8.6" ry="14.9"/>

								<ellipse transform="matrix(0.8633 -0.5047 0.5047 0.8633 -361.7835 562.3146)" class="st31" cx="857.1" cy="949" rx="8.6" ry="14.9"/>

								<ellipse transform="matrix(0.8633 -0.5047 0.5047 0.8633 -366.4518 579.7246)" class="st31" cx="886.9" cy="966.3" rx="8.6" ry="14.9"/>

								<ellipse transform="matrix(0.8633 -0.5047 0.5047 0.8633 -371.0597 597.1107)" class="st31" cx="916.7" cy="983.5" rx="8.6" ry="14.9"/>
						</g>
						<g>

								<ellipse transform="matrix(0.8633 -0.5047 0.5047 0.8633 -320.0941 404.86)" class="st31" cx="587.3" cy="793.3" rx="8.6" ry="14.9"/>

								<ellipse transform="matrix(0.8633 -0.5047 0.5047 0.8633 -324.6781 422.3066)" class="st31" cx="617.2" cy="810.5" rx="8.6" ry="14.9"/>

								<ellipse transform="matrix(0.8633 -0.5047 0.5047 0.8633 -329.2859 439.6928)" class="st31" cx="647" cy="827.7" rx="8.6" ry="14.9"/>

								<ellipse transform="matrix(0.8633 -0.5047 0.5047 0.8633 -333.9543 457.1028)" class="st31" cx="676.8" cy="845" rx="8.6" ry="14.9"/>
						</g>
						<path class="st31" d="M776.4,909.9l-48.7-28.1c-3.1-1.8-5.6-6.6-5.6-10.7l0,0c0-4.1,2.5-6,5.6-4.2l48.7,28.1
							c3.1,1.8,5.6,6.6,5.6,10.7l0,0C782,909.8,779.5,911.7,776.4,909.9z"/>
					</g>
					<g>
						<path class="st31" d="M1917.8,584.4l-177.4,102.4c-4.8,2.8-8.7-0.2-8.7-6.5V680c0-6.4,3.9-13.8,8.7-16.5L1917.8,561
							c4.8-2.8,8.7,0.2,8.7,6.5v0.3C1926.5,574.3,1922.6,581.7,1917.8,584.4z"/>
						<path class="st31" d="M2121.1,467l-177.4,102.4c-4.8,2.8-8.7-0.2-8.7-6.5v-0.3c0-6.4,3.9-13.8,8.7-16.5l177.4-102.4
							c4.8-2.8,8.7,0.2,8.7,6.5v0.3C2129.8,456.9,2125.9,464.3,2121.1,467z"/>
					</g>
				</g>
				<g>
					<g>
						<g>
							<g>
								<defs>
									<path id="SVGID_1_" d="M1035.5,1016.1L512.8,714.3c-14.3-8.3-14.4-21.7-0.2-29.9L1668.7,16.9c14.3-8.2,37.5-8.2,51.8,0.1
										l211.7,122.2c2.5,1.4,3.8,3.4,3.6,5.4l-3.1,29.1c-1.3,12.7,17,23.3,39,22.5l50.3-1.8c3.5-0.1,6.9,0.6,9.4,2.1l211.7,122.2
										c14.3,8.3,14.4,21.7,0.2,29.9l-1156.1,667.5C1073,1024.4,1049.8,1024.4,1035.5,1016.1z"/>
								</defs>
								<clipPath id="SVGID_2_">
									<use xlink:href="#SVGID_1_"  style="overflow:visible;"/>
								</clipPath>
								<g class="st32">
									<polygon class="st2" points="1516.6,1100.7 1091.3,855.2 1688.8,510.2 2114.1,755.7 									"/>
									<polygon class="st10" points="1022.1,815.2 596.8,569.7 1194.3,224.7 1619.6,470.2 									"/>
								</g>
							</g>
						</g>
					</g>

						<ellipse transform="matrix(5.421873e-03 -1 1 5.421873e-03 1546.8851 1784.2437)" class="st33" cx="1670.4" cy="114.5" rx="39.6" ry="68.6"/>

						<ellipse transform="matrix(5.421873e-03 -1 1 5.421873e-03 1596.212 1970.5007)" class="st0" cx="1788.7" cy="182.8" rx="39.6" ry="68.6"/>

						<ellipse transform="matrix(5.421873e-03 -1 1 5.421873e-03 1644.0427 2151)" class="st0" cx="1903.4" cy="249" rx="39.6" ry="68.6"/>
					<polygon class="st34" points="2153.8,544.5 1489.1,160.7 1529.7,137.3 2194.5,521.1 					"/>
					<text transform="matrix(0.8715 0.5031 -0.866 0.5 1497.4279 155.8887)" class="st0 st35 st36">Lorem ipsum</text>
					<polygon class="st34" points="1879.7,522.9 1374.1,230.9 1468.8,176.3 1974.4,468.2 					"/>
					<text transform="matrix(0.8715 0.5031 -0.866 0.5 1454.55 184.5023)" class="st0 st37 st38">Lorem ipsum dolor sit amet, consectetuer adipiscing elit, sed </text>
					<text transform="matrix(0.8715 0.5031 -0.866 0.5 1431.8607 197.6024)" class="st0 st37 st38">diam nonummy nibh euismod tincidunt ut laoreet dolore </text>
					<text transform="matrix(0.8715 0.5031 -0.866 0.5 1409.0851 210.7523)" class="st0 st37 st38">magna aliquam erat volutpat. Ut wisi enim ad minim veniam, </text>
					<text transform="matrix(0.8715 0.5031 -0.866 0.5 1386.3956 223.8524)" class="st0 st37 st38">quis nostrud exerci tation ullamcorper suscipit lobortis nisl </text>
					<polygon class="st2" points="1021.5,719 596.3,473.5 1193.8,128.5 1619,374 					"/>
					<g>
						<polygon class="st0" points="1083,646.4 722.1,438 768.6,411.2 1129.5,619.5 						"/>
						<polygon class="st1" points="829.9,574.1 658.1,474.9 704.7,448.1 876.4,547.3 						"/>
						<polygon class="st1" points="1019,683.3 847.2,584.1 893.7,557.3 1065.5,656.4 						"/>
					</g>
					<g>
						<g>
							<path class="st0" d="M1149.9,207.2l332.9,192.2l-330.6,190.9L819.3,398.1L1149.9,207.2 M1149.9,191L791.3,398l360.9,208.3
								l358.6-207L1149.9,191L1149.9,191z"/>
						</g>
						<g>
							<line class="st39" x1="1150.4" y1="277.9" x2="1151.7" y2="519.5"/>
						</g>
						<g>
							<line class="st39" x1="1360.4" y1="399.1" x2="941.8" y2="398.3"/>
						</g>
					</g>
					<polygon class="st1" points="1527.1,389.9 1166.2,181.6 1197.6,163.5 1558.4,371.9 					"/>
				</g>
			</g>
		</g>
	</g>
</g>
</svg>
