<?xml version="1.0" encoding="utf-8"?>
<svg version="1.1" id="Layer_1" xmlns="http://www.w3.org/2000/svg" xmlns:xlink="http://www.w3.org/1999/xlink" x="0px" y="0px"
	 viewBox="0 0 500 500" style="enable-background:new 0 0 500 500;" xml:space="preserve">
<style type="text/css">
	.st0{fill:#E80F0F;}
	.st1{fill:#D80505;}
	.st2{opacity:0.18;}
	.st3{fill:#FFFFFF;}
	.st4{opacity:0.32;}
	.st5{fill:#BA0000;}
	.st6{fill:#4CAF50;}
	.st7{fill:#308E30;}
	.st8{fill:#3E9B3E;}
	.st9{fill:#8BC34A;}
	.st10{fill:#1F6D1F;}
	.st11{fill:#FF4545;}
	.st12{fill:#0E540E;}
</style>
<g>
	<g>
		<g>
			<g>
				<g>
					<g>
						<path class="st0" d="M468.8,217.1c-29.5,38.8-116.8,78-174.1,57.4c-9.2-3.3-18.2-8.1-27.9-8.1c-4.2,0-8.4,0.9-12.5-0.2
							C246,264,242,255,237.1,247.9c-10.9-15.6-35.1-27.6-57.2-37.6c-28.8-13-38.6-10.4-53.1,6.3c-6.1,7.1-12,14.3-17.8,21.7
							c-5.3,6.8-6.8,5.9-9.5,14.1c-2.6,8-2.7,19.6,0.5,27.5c3.3,8,10.1,14.4,16.5,18.8c11.1,7.8,18.9,19.6,30.1,27.3
							c19.8,13.5,45.9,11.4,69,17.8c10.8,3,20.9,7.9,31.6,11c33.8,10,70.9,2.3,101.9-14.4C399.4,313.4,461.8,242.5,468.8,217.1z"/>
					</g>
				</g>
				<g>
					<g>
						<path class="st1" d="M146.8,327.5c-11.2-7.6-19-19.5-30.1-27.3c-5.4-3.8-11.1-8.9-14.8-15.3c-0.1,0.1-0.2,0.3-0.2,0.4
							c-6.1-10.3-5.1-24.4-2.4-32.1c2-5.9,23-30.6,27.1-35.3c8.7-10,16.6-17.7,34.6-13.3c-5.2,1.9-10.2,4.8-14.5,8.3
							c-5.7,4.6-11,11.8-8.7,18.8c0.8,2.4,2.4,4.5,4,6.5c4.3,5.5,12.2,6.2,13,16.4c-8.4-6-21.8-6.5-30.7-1.1
							c-5.4,3.3-6.2,11-1.9,15.6c2.9,3.1,6.2,5.8,9.4,8c11.1,7.8,18.9,19.6,30.1,27.3c19.8,13.5,45.9,11.4,69,17.8
							c19.8,5.5,64.4,33.9,133.6-3.4c40.8-22,84.1-69.4,101.8-92.4c-7.6,17-110.4,161.9-218.6,129.8c-10.7-3.2-20.9-8.1-31.6-11
							C192.7,338.9,166.5,341,146.8,327.5z"/>
					</g>
				</g>
				<g class="st2">
					<g>
						<g>
							<path class="st3" d="M281,284.1c-9.5-3.4-18.9-8.4-29-8.4c-4.3,0-8.8,0.9-13-0.2c-8.6-2.3-12.8-11.7-17.9-19
								c-8-11.5-20.3-19.1-32.6-25.8c-8.8-4.8-17.8-9.2-26.9-13.3c-8.2-3.7-17.8-7.9-27.1-8.5c13.4-10.8,28.8-4.9,44.6,2.3
								c21.9,9.9,46.2,21.9,57.2,37.6c4.9,7,8.9,16.1,17.2,18.3c4,1.1,8.3,0.2,12.5,0.2c22.5,0,51.7,34.6,139.3-4.4
								c19.5-8.7,38.6-19.5,53.6-34.6C428.6,264.4,340.9,305.7,281,284.1z"/>
						</g>
					</g>
				</g>
				<g class="st4">
					<g>
						<g>
							<path class="st3" d="M192,251.8c-1.9-1.7-4-3.3-6.5-3.6c-2.6-0.3-5,0.8-6.6,3.7c-1.6,2.9-1.8,6.4-1.1,9.4
								c3.8,16.2,28.2,28.7,42.8,17.9C208.8,281.5,209.6,267.3,192,251.8z"/>
						</g>
					</g>
				</g>
				<g>
					<g>
						<g>
							<path class="st5" d="M146.1,327.2c-11.2-7.6-19-19.5-30.1-27.3c-6.4-4.4-13.2-10.8-16.5-18.8c-3.2-7.8-3.1-19.5-0.5-27.5
								c2.7-8.2,3.9-7,10.1-14.9c-0.9,1.4-1.8,3.2-2.8,6.3c-2.6,8-2.7,19.6,0.5,27.5c3.3,8,10.1,14.4,16.5,18.8
								c11.1,7.8,18.9,19.6,30.1,27.3c19.8,13.5,45.9,11.4,69,17.8c34.4,9.6,101.7,57.2,222.9-80.7c-24.6,29.9-60.9,66.7-96.6,85.9
								c-31,16.7-68.2,24.4-101.9,14.4c-10.7-3.2-20.9-8.1-31.6-11C192.1,338.7,165.9,340.7,146.1,327.2z"/>
						</g>
					</g>
					<g>
						<g>
							<path class="st5" d="M110.9,236.6c6.9-8.8,13.4-16.5,17.1-20.6c-4.1,4.9-8.2,9.9-12.1,15
								C113.7,233.8,112.1,235.3,110.9,236.6z"/>
						</g>
					</g>
				</g>
				<g>
					<g>
						<path class="st1" d="M263.7,273.7c-4.2,0-8.4,0.9-12.5-0.2c-8.3-2.2-12.3-11.3-17.2-18.3c-7.7-11-19.5-18.4-31.3-24.8
							c-8.5-4.6-17.1-8.8-25.9-12.8c-10.7-4.8-23.7-10.5-35.3-7.2c-2.6-0.6-5.1-1-7.7-1.2c13.4-10.8,28.8-4.9,44.6,2.3
							c21.9,9.9,46.2,21.9,57.2,37.6c4.9,7,8.9,16.1,17.2,18.3c4,1.1,8.3,0.2,12.5,0.2c9.7,0,18.7,4.8,27.9,8.1
							c57.4,20.7,137.7-19,165.4-47c-16.2,19.3-39.3,32.4-62.4,42.7C316.1,307.1,285.4,273.7,263.7,273.7z"/>
					</g>
				</g>
				<g>
					<g>
						<path class="st6" d="M94.8,237.9c1.6-14.7-7.1-31.6-12.8-41c-6.7-8.4-12.8-17.4-19.7-25.7c-8.7-10.5-20.1-14.3-30.7-22.3
							c-4.1-3.1,0.9-9.5,5-6.3c13.5,10.2,17.4,4.9,34.6,27c9.2,11.8,32.2,46.2,50.5,33.8c4.3-2.9,5.6,4.9,1.3,7.8
							c-1.9,1.3-3.8,2.2-5.6,2.9C112.9,220.3,93.9,246.4,94.8,237.9z"/>
					</g>
				</g>
				<g>
					<g>
						<g>
							<path class="st7" d="M94.8,237.9c1.6-14.7-7.1-31.6-12.8-41c-6.7-8.4-12.8-17.4-19.7-25.7c-8.7-10.5-20.1-14.3-30.7-22.3
								c-3.5-2.7-0.4-7.6,3.1-7.1c-5.7,7.7,18.5,12.1,31.8,28.1c7,8.4,13.1,17.5,20,26c5.7,9.3,14.3,26,13.1,40.7
								C96.6,239.6,94.5,240.8,94.8,237.9z"/>
						</g>
					</g>
				</g>
				<g>
					<g>
						<path class="st6" d="M168.4,205.7c-16.8-4.6-41.6,11-37.6,23.5c3.2,9.9,13.1,8.4,13.9,18.7c-6.7-4.8-17.6-5.4-25-0.9
							c-4,2.5-6.7,6.7-9,10.8c-3.2,5.7-9.7,14.7-12.3,20.7c-5.6-11.2-7.2-25.2-4.6-37.5c2.9-13.9,11.8-26.6,23.5-34.7
							c3.3-2.3,9.9-6.4,13.7-7.6c1.8-0.6,3.6-1.1,5.3-1.4c11.2-2.4,23.6,0.6,32.2,8L168.4,205.7z"/>
					</g>
				</g>
				<g>
					<g>
						<path class="st8" d="M125.2,201.4c-19.7,26.7-18.3,38.6-11.5,51.5c-1.3,1.9-13.8,22-15.3,25.6
							C85.6,252.8,92.6,219.5,125.2,201.4z"/>
					</g>
				</g>
				<g>
					<g>
						<path class="st7" d="M101.9,272.1c-1.4,2.3-2.6,4.6-3.5,6.5c-11.7-23.5-6.1-53,16.6-70.4C96.4,225.8,92.9,251.1,101.9,272.1z"
							/>
					</g>
				</g>
				<g>
					<g>
						<g>
							<path class="st9" d="M104.2,218.6c8.8-11.3,22.1-18.5,26.7-20c1.8-0.6,3.6-1.1,5.3-1.4c11.2-2.4,23.7,1,32.3,8.5l-0.6-0.2
								c-5.7-1.6-11.9-0.6-17.6,1.3C133.6,199.6,117.6,206.3,104.2,218.6z"/>
						</g>
					</g>
				</g>
			</g>
			<g>
				<g>
					<path class="st10" d="M114.5,214.4c-8.1,1-16.3,12.9-8.6,17.7l0.6-0.2c1.1-2.1,1.8-3.4,2.3-4.8c0.6-1.3,0.2-2.8,0.6-4.3
						c0.4-1.4,1.1-2.9,1.9-4.2c0.8-1.4,2-2.6,3.4-3.7L114.5,214.4z"/>
				</g>
			</g>
			<g>
				<g>
					<g>
						<path class="st5" d="M472.2,214.3c-5.3,25.9-29.1,45.8-46.7,63.9c-100.4,103.8-157.4,68.3-194,62.4
							c-29.1-4.6-42.1,5.5-79.1-22.6c-14.6-11.1-28.8-22.7-43.2-34.1c-3-2.4,0.6-7.2,3.6-4.8c27.1,21.5,55,51.8,91.5,53.7
							c16.1,0.9,31.2,2,47,6c28.3,7.1,77.3,19.4,146.4-42.1c14.3-12.7,27.4-26.7,40.4-40.7c11.6-12.5,24.5-25.2,28.1-42.5
							C467,209.8,473,210.5,472.2,214.3L472.2,214.3z"/>
					</g>
				</g>
			</g>
			<g>
				<g>
					<g>
						<path class="st5" d="M118.8,270.9c0.9,4.2,2.4,8.2,4.3,12c1.5,2.9-0.4,6.7-3.2,7.9c-3.2,1.3-6.4-0.3-7.9-3.2
							c-2.4-4.8-4.1-9.9-5.2-15.2c-0.7-3.2,2.2-6.3,5.2-6.7C115.5,265.3,118.1,267.7,118.8,270.9L118.8,270.9z"/>
					</g>
				</g>
			</g>
			<g>
				<g>
					<g>
						<path class="st5" d="M143.6,274.4c4.1,8.3,10.3,14.5,18.3,19.1c6.7,3.9-0.6,13.5-7.2,9.6c-9.8-5.7-17.2-14-22.1-24.1
							C129,272.1,140.1,267.4,143.6,274.4L143.6,274.4z"/>
					</g>
				</g>
			</g>
			<g>
				<g>
					<g>
						<path class="st11" d="M280.7,290.6c-7.4-4.4-15.8-6-24.2-4.9c-3.8,0.5-4.6-5.5-0.8-6c10.1-1.3,19.9,0.8,28.6,6
							C287.6,287.8,284,292.6,280.7,290.6L280.7,290.6z"/>
					</g>
				</g>
			</g>
			<g>
				<g>
					<path class="st12" d="M55.5,154c13.7,10.8,22.6,24.7,34.5,38.7c3.8,4.4,7.9,8.9,13.4,12c13.1,7.5,23.4-0.4,35-1.9
						c5.3-0.8,10.9-0.6,16.4,0.2c5.6,0.8,11.1,2.3,16.8,3.7l0.1,0.1c-5-3.1-10.1-6.3-15.9-8.1c-5.7-1.8-11.9-2.5-18.1-2
						c-3.1,0.2-6.2,1-9,1.9c-2.8,0.9-5.5,2-8.1,2.8c-24.3,7.4-33.6-27-64.8-48L55.5,154z"/>
				</g>
			</g>
		</g>
		<g>
			<g>
				<path class="st12" d="M134.9,244.5c-3.8-2.6-11.1-3.2-19.7,2.9c-4.9,3.3-10.7,9-14.2,15c-5.4,9.2-6.4,18.8-14,24.9
					c-2.4,1.9-5.3,3.3-8.7,3.4c6,2.4,13.7-1.4,18.4-7.8c7.3-9.8,5.9-17.1,21.4-31.9c2.3-2.1,4.8-4,7.6-5.3
					C128.4,244.4,131.5,243.8,134.9,244.5z"/>
			</g>
		</g>
		<g>
			<g>
				<path class="st10" d="M29.9,146.7c35.2,26.3,61.6,62.8,62.8,78.5c0.7,7.8-2.3,17.5-2.5,28c-0.2,6.5,1,13.1,3.9,18.8
					c-4.1-14,0.3-25.5,2.6-37.1c1.5-8,1.6-12.8-0.9-20c-2.3-6.4-5.7-11.8-9.1-17.3C71.4,173.8,50.8,156.4,29.9,146.7z"/>
			</g>
		</g>
	</g>
	<g>
		<g>
			<path class="st12" d="M30.4,139.3c-0.4,5.9-5.2,4.4-0.9,9.4L30,149c1.3,0,2.7-0.6,3.5-1.6c0.8-0.9-0.3-4.9-0.7-5.9
				c-0.5-0.9-1-1.9-1.9-2.5L30.4,139.3z"/>
		</g>
	</g>
</g>
</svg>
