<?xml version="1.0" encoding="UTF-8"?>
<svg width="702px" height="375px" viewBox="0 0 702 375" version="1.1" xmlns="http://www.w3.org/2000/svg" xmlns:xlink="http://www.w3.org/1999/xlink">
    <!-- Generator: Sketch 52.4 (67378) - http://www.bohemiancoding.com/sketch -->
    <title>Illustration</title>
    <desc>Created with Sketch.</desc>
    <g id="Landing" stroke="none" stroke-width="1" fill="none" fill-rule="evenodd">
        <g id="Desktop-HD" transform="translate(-61.000000, -1109.000000)">
            <g id="Illustration" transform="translate(62.000000, 1110.000000)">
                <path d="M22,118 L310,118" id="Line-2" stroke="#DDDDDD" stroke-width="2" stroke-linecap="square"></path>
                <path d="M502.5,0.5 L502.5,372.740294" id="Line" stroke="#DDDDDD" stroke-width="2" stroke-linecap="square"></path>
                <path d="M105.5,46 L105.5,260" id="Line" stroke="#DDDDDD" stroke-width="2" stroke-linecap="square"></path>
                <path d="M0,61 L700,61" id="Line-2" stroke="#DDDDDD" stroke-width="2" stroke-linecap="square"></path>
                <path d="M240,284 L528,284" id="Line-2" stroke="#DDDDDD" stroke-width="2" stroke-linecap="square"></path>
                <g id="logo_color" transform="translate(56.000000, 61.000000)">
                    <g id="Group" transform="translate(2.000000, 2.000000)">
                        <g transform="translate(1.000000, 0.000000)" id="Path">
                            <g>
                                <path d="M438.76,76.05 C409.26,114.88 321.95,154.09 264.7,133.5 C255.53,130.2 246.54,125.43 236.8,125.41 C232.63,125.4 228.37,126.28 224.34,125.22 C216.03,123.03 212.04,113.95 207.12,106.92 C196.2,91.3 171.99,79.31 149.93,69.35 C121.14,56.34 111.36,58.91 96.86,75.69 C90.75,82.76 84.82,89.98 79.07,97.36 C73.76,104.18 72.3,103.24 69.59,111.46 C66.95,119.46 66.9,131.1 70.05,138.91 C73.3,146.95 80.19,153.28 86.55,157.72 C97.67,165.49 105.46,177.35 116.67,184.99 C136.45,198.47 162.6,196.42 185.66,202.82 C196.42,205.81 206.57,210.68 217.28,213.86 C251.04,223.89 288.22,216.14 319.23,199.45 C369.39,172.44 431.83,101.49 438.76,76.05 Z" fill="#E80F0F"></path>
                                <path d="M116.76,186.49 C105.55,178.85 97.76,166.99 86.64,159.22 C81.25,155.45 75.5,150.31 71.88,143.94 C71.81,144.07 71.72,144.2 71.65,144.32 C65.51,134.04 66.54,119.93 69.2,112.25 C71.25,106.35 92.24,81.63 96.31,76.92 C104.97,66.9 112.87,59.22 130.96,63.66 C125.72,65.56 120.76,68.43 116.44,71.92 C110.71,76.55 105.47,83.75 107.74,90.76 C108.53,93.19 110.15,95.26 111.74,97.26 C116.07,102.73 123.97,103.51 124.72,113.67 C116.35,107.71 102.95,107.12 94.04,112.61 C88.66,115.92 87.8,123.58 92.11,128.21 C95.03,131.35 98.33,134.03 101.51,136.25 C112.63,144.02 120.42,155.88 131.63,163.52 C151.41,177 177.56,174.95 200.62,181.35 C220.42,186.85 264.98,215.24 334.18,177.98 C375,156 418.27,108.59 435.95,85.61 C428.36,102.59 325.57,247.51 217.35,215.37 C206.65,212.19 196.49,207.32 185.73,204.33 C162.69,197.91 136.54,199.97 116.76,186.49 Z" fill="#D80505"></path>
                                <g opacity="0.18" transform="translate(104.000000, 61.000000)" fill="#FFFFFF">
                                    <g>
                                        <path d="M146.96,82.12 C137.43,78.69 128.08,73.73 117.95,73.71 C113.61,73.7 109.19,74.61 104.99,73.51 C96.35,71.24 92.2,61.79 87.08,54.47 C79.07,43.02 66.76,35.39 54.51,28.71 C45.72,23.92 36.73,19.52 27.61,15.4 C19.36,11.67 9.77,7.48 0.47,6.94 C13.9,-3.91 29.3,2.07 45.08,9.2 C66.94,19.08 91.32,31.12 102.27,46.77 C107.19,53.81 111.19,62.89 119.5,65.07 C123.53,66.13 127.79,65.26 131.96,65.26 C154.44,65.29 183.69,99.87 271.28,60.85 C290.79,52.16 309.92,41.35 324.85,26.29 C294.56,62.44 206.92,103.69 146.96,82.12 Z"></path>
                                    </g>
                                </g>
                                <g opacity="0.32" transform="translate(147.000000, 107.000000)" fill="#FFFFFF">
                                    <g>
                                        <path d="M15.01,3.83 C13.1,2.15 11,0.53 8.48,0.2 C5.85,-0.14 3.46,0.97 1.84,3.94 C0.26,6.82 0.05,10.32 0.76,13.35 C4.56,29.56 28.96,42.03 43.51,31.21 C31.81,33.49 32.55,19.27 15.01,3.83 Z"></path>
                                    </g>
                                </g>
                                <g transform="translate(67.000000, 75.000000)" fill="#BA0000">
                                    <path d="M49.14,111.22 C37.93,103.58 30.14,91.72 19.02,83.95 C12.66,79.5 5.77,73.18 2.52,65.14 C-0.64,57.33 -0.58,45.69 2.06,37.69 C4.76,29.51 5.98,30.72 12.16,22.81 C11.23,24.21 10.39,26 9.38,29.08 C6.74,37.08 6.69,48.72 9.84,56.53 C13.09,64.57 19.98,70.9 26.34,75.34 C37.46,83.11 45.25,94.97 56.46,102.61 C76.24,116.09 102.39,114.04 125.45,120.44 C159.9,130.01 227.14,177.63 348.33,39.75 C323.72,69.69 287.42,106.44 251.69,125.68 C220.68,142.38 183.5,150.12 149.74,140.09 C139.04,136.91 128.88,132.04 118.12,129.05 C95.07,122.65 68.92,124.71 49.14,111.22 Z"></path>
                                    <path d="M13.91,20.63 C20.85,11.85 27.33,4.15 30.99,0.02 C26.87,4.94 22.81,9.91 18.86,14.97 C16.67,17.78 15.14,19.27 13.91,20.63 Z"></path>
                                </g>
                                <path d="M233.73,132.65 C229.56,132.64 225.3,133.52 221.27,132.46 C212.96,130.27 208.97,121.19 204.05,114.16 C196.35,103.15 184.51,95.81 172.73,89.39 C164.28,84.79 155.63,80.55 146.86,76.59 C136.15,71.75 123.11,66.11 111.54,69.38 C108.99,68.77 106.42,68.33 103.88,68.18 C117.31,57.33 132.71,63.31 148.49,70.44 C170.35,80.32 194.73,92.36 205.68,108.01 C210.6,115.05 214.6,124.13 222.91,126.31 C226.94,127.37 231.2,126.5 235.37,126.5 C245.11,126.51 254.1,131.29 263.27,134.59 C320.7,155.25 401,115.56 428.69,87.62 C412.48,106.96 389.4,120.04 366.25,130.35 C286.06,166.09 255.37,132.68 233.73,132.65 Z" fill="#D80505"></path>
                                <path d="M64.85,96.86 C66.46,82.14 57.76,65.24 52,55.9 C45.26,47.48 39.18,38.51 32.3,30.21 C23.57,19.67 12.18,15.9 1.63,7.92 C-2.52,4.78 2.5,-1.57 6.66,1.58 C20.19,11.82 24.06,6.48 41.26,28.57 C50.42,40.34 73.45,74.74 91.77,62.34 C96.07,59.43 97.36,67.19 93.03,70.12 C91.14,71.4 89.26,72.36 87.39,73.03 C82.88,79.32 63.91,105.39 64.85,96.86 Z" fill="#4CAF50"></path>
                                <path d="M64.85,96.86 C66.46,82.14 57.76,65.24 52,55.9 C45.26,47.48 39.18,38.51 32.3,30.21 C23.57,19.67 12.18,15.9 1.63,7.92 C-1.9,5.25 1.21,0.27 4.78,0.79 C-0.95,8.53 23.33,12.89 36.55,28.85 C43.52,37.27 49.69,46.35 56.51,54.88 C62.24,64.18 70.82,80.84 69.58,95.56 C66.57,98.62 64.52,99.81 64.85,96.86 Z" fill="#308E30"></path>
                                <path d="M138.41,64.75 C121.65,60.11 96.76,75.77 100.83,88.3 C104.04,98.19 113.95,96.69 114.72,107.04 C107.98,102.23 97.08,101.64 89.7,106.12 C85.65,108.58 83.03,112.78 80.72,116.92 C77.54,122.61 71.02,131.59 68.45,137.57 C62.87,126.33 61.28,112.38 63.85,100.1 C66.76,86.19 75.65,73.49 87.36,65.41 C90.67,63.12 97.28,59.04 101.1,57.79 C102.88,57.21 104.66,56.73 106.44,56.35 C117.6,53.99 130.03,56.91 138.63,64.39 L138.41,64.75 Z" fill="#4CAF50"></path>
                                <path d="M95.24,60.44 C75.52,87.09 76.93,99.05 83.74,111.9 C82.43,113.76 69.97,133.88 68.42,137.5 C55.64,111.78 62.6,78.48 95.24,60.44 Z" fill="#3E9B3E"></path>
                                <path d="M71.9,131.09 C70.51,133.41 69.26,135.65 68.44,137.56 C56.78,114.07 62.38,84.56 85.06,67.14 C66.42,84.82 62.89,110.11 71.9,131.09 Z" fill="#308E30"></path>
                                <path d="M74.24,77.58 C83.03,66.23 96.36,59.08 100.93,57.59 C102.71,57.01 104.49,56.53 106.27,56.15 C117.43,53.79 129.93,57.12 138.54,64.6 L137.99,64.38 C132.3,62.81 126.04,63.78 120.43,65.67 C103.6,58.61 87.58,65.35 74.24,77.58 Z" fill="#8BC34A"></path>
                            </g>
                            <path d="M84.49,73.45 C76.44,74.47 68.15,86.39 75.87,91.14 L76.45,90.98 C77.59,88.91 78.21,87.56 78.75,86.2 C79.35,84.92 78.96,83.39 79.39,81.91 C79.81,80.47 80.45,79.04 81.32,77.69 C82.16,76.3 83.33,75.1 84.72,74.01 L84.49,73.45 Z" fill="#1F6D1F"></path>
                            <path d="M442.24,73.34 C436.93,99.2 413.12,119.11 395.57,137.25 C295.19,241.08 238.21,205.5 201.6,199.67 C172.55,195.04 159.53,205.14 122.51,177.04 C107.91,165.96 93.72,154.32 79.35,142.94 C76.31,140.53 79.92,135.72 82.96,138.12 C110.06,159.58 138,189.87 174.42,191.87 C190.56,192.75 205.63,193.91 221.39,197.89 C249.68,205.04 298.65,217.31 367.82,155.78 C382.11,143.07 395.22,129.12 408.18,115.08 C419.74,102.55 432.71,89.85 436.26,72.55 C437.04,68.79 443.02,69.54 442.24,73.34 Z" fill="#BA0000"></path>
                            <path d="M88.78,129.93 C89.67,134.14 91.19,138.12 93.11,141.97 C94.56,144.88 92.76,148.65 89.9,149.85 C86.74,151.18 83.48,149.56 82.02,146.64 C79.61,141.82 77.97,136.76 76.85,131.48 C76.17,128.3 79.01,125.13 82.04,124.73 C85.47,124.28 88.1,126.74 88.78,129.93 Z" fill="#BA0000"></path>
                            <path d="M113.57,133.37 C117.65,141.64 123.9,147.9 131.84,152.52 C138.54,156.41 131.24,166 124.62,162.15 C114.85,156.47 107.46,148.14 102.48,138.04 C99.04,131.09 110.15,126.44 113.57,133.37 Z" fill="#BA0000"></path>
                            <path d="M250.67,149.62 C243.32,145.26 234.89,143.66 226.45,144.75 C222.61,145.24 221.82,139.28 225.67,138.78 C235.78,137.48 245.54,139.62 254.28,144.8 C257.61,146.78 253.97,151.57 250.67,149.62 Z" fill="#FF4545"></path>
                            <path d="M25.51,12.97 C39.18,23.81 48.14,37.72 60.04,51.71 C63.85,56.14 67.98,60.6 73.47,63.74 C86.55,71.19 96.91,63.37 108.51,61.82 C113.84,61.04 119.37,61.17 124.92,62.01 C130.48,62.81 136.04,64.26 141.71,65.7 L141.78,65.79 C136.81,62.68 131.63,59.45 125.88,57.74 C120.15,55.98 113.97,55.2 107.8,55.76 C104.72,56 101.64,56.75 98.76,57.66 C95.91,58.58 93.27,59.64 90.67,60.43 C66.37,67.85 57.06,33.45 25.88,12.48 L25.51,12.97 Z" fill="#0E540E"></path>
                        </g>
                        <path d="M105.87,103.48 C102.03,100.86 94.8,100.3 86.15,106.34 C81.21,109.66 75.49,115.37 71.91,121.37 C66.48,130.62 65.56,140.2 57.9,146.27 C55.54,148.21 52.61,149.55 49.23,149.64 C55.19,152.05 62.92,148.22 67.6,141.88 C74.92,132.09 73.52,124.79 89.03,110.02 C91.35,107.94 93.84,106.06 96.64,104.75 C99.41,103.43 102.54,102.83 105.87,103.48 Z" id="Path" fill="#0E540E"></path>
                        <path d="M0.89,5.69 C36.13,32.02 62.53,68.5 63.65,84.19 C64.32,92.02 61.32,101.72 61.14,112.22 C60.97,118.7 62.15,125.3 65.02,130.99 C60.94,117.01 65.29,105.49 67.57,93.88 C69.09,85.91 69.15,81.09 66.62,73.86 C64.33,67.46 60.92,62.02 57.54,56.52 C42.43,32.81 21.77,15.41 0.89,5.69 Z" id="Path" fill="#1F6D1F"></path>
                    </g>
                    <path d="M3.35,0.3 C2.99,6.22 -1.82,4.72 2.44,9.75 L2.99,10 C4.32,9.95 5.66,9.43 6.47,8.36 C7.27,7.44 6.2,3.5 5.75,2.46 C5.29,1.52 4.75,0.57 3.88,0 L3.35,0.3 Z" id="Path" fill="#0E540E"></path>
                </g>
            </g>
        </g>
    </g>
</svg>