<?xml version="1.0" encoding="utf-8"?>
<!-- Generator: Adobe Illustrator 23.0.1, SVG Export Plug-In . SVG Version: 6.00 Build 0)  -->
<svg version="1.1" id="Layer_1" xmlns="http://www.w3.org/2000/svg" xmlns:xlink="http://www.w3.org/1999/xlink" x="0px" y="0px"
	 viewBox="0 0 372.2 700" style="enable-background:new 0 0 372.2 700;" xml:space="preserve">
<style type="text/css">
	.st0{fill:none;stroke:#DDDDDD;stroke-width:2;stroke-linecap:square;}
	.st1{fill-rule:evenodd;clip-rule:evenodd;fill:#E80F0F;}
	.st2{fill-rule:evenodd;clip-rule:evenodd;fill:#D80505;}
	.st3{opacity:0.18;}
	.st4{fill-rule:evenodd;clip-rule:evenodd;fill:#FFFFFF;}
	.st5{opacity:0.32;}
	.st6{fill-rule:evenodd;clip-rule:evenodd;fill:#BA0000;}
	.st7{fill-rule:evenodd;clip-rule:evenodd;fill:#4CAF50;}
	.st8{fill-rule:evenodd;clip-rule:evenodd;fill:#308E30;}
	.st9{fill-rule:evenodd;clip-rule:evenodd;fill:#3E9B3E;}
	.st10{fill-rule:evenodd;clip-rule:evenodd;fill:#8BC34A;}
	.st11{fill-rule:evenodd;clip-rule:evenodd;fill:#1F6D1F;}
	.st12{fill-rule:evenodd;clip-rule:evenodd;fill:#FF4545;}
	.st13{fill-rule:evenodd;clip-rule:evenodd;fill:#0E540E;}
</style>
<title>Illustration</title>
<desc>Created with Sketch.</desc>
<g id="Landing">
	<g id="Desktop-HD" transform="translate(-61.000000, -1109.000000)">
		<g id="Illustration" transform="translate(62.000000, 1110.000000)">
			<path id="Line-2" class="st0" d="M253.7,21v288"/>
			<path id="Line" class="st0" d="M371.2,501.5H-1"/>
			<path class="st0" d="M325.7,104.5h-214"/>
			<path class="st0" d="M310.7-1v700"/>
			<path class="st0" d="M87.7,239v288"/>
			<g id="logo_color" transform="translate(56.000000, 61.000000)">
				<g id="Group" transform="translate(2.000000, 2.000000)">
					<g id="Path" transform="translate(1.000000, 0.000000)">
						<g>
							<path class="st1" d="M173.7,433.8c-38.8-29.5-78-116.8-57.4-174.1c3.3-9.2,8.1-18.2,8.1-27.9c0-4.2-0.9-8.4,0.2-12.5
								c2.2-8.3,11.3-12.3,18.3-17.2c15.6-10.9,27.6-35.1,37.6-57.2c13-28.8,10.4-38.6-6.3-53.1c-7.1-6.1-14.3-12-21.7-17.8
								c-6.8-5.3-5.9-6.8-14.1-9.5c-8-2.6-19.6-2.7-27.5,0.5c-8,3.2-14.4,10.1-18.8,16.5c-7.8,11.1-19.6,18.9-27.3,30.1
								c-13.5,19.8-11.4,45.9-17.8,69c-3,10.8-7.9,20.9-11,31.6c-10,33.8-2.3,70.9,14.4,102C77.3,364.4,148.3,426.8,173.7,433.8z"/>
							<path class="st2" d="M63.3,111.8c7.6-11.2,19.5-19,27.3-30.1c3.8-5.4,8.9-11.1,15.3-14.8c-0.1-0.1-0.3-0.2-0.4-0.2
								c10.3-6.1,24.4-5.1,32.1-2.5c5.9,2.1,30.6,23,35.3,27.1c10,8.7,17.7,16.6,13.3,34.7c-1.9-5.2-4.8-10.2-8.3-14.5
								c-4.6-5.7-11.8-11-18.8-8.7c-2.4,0.8-4.5,2.4-6.5,4c-5.5,4.3-6.2,12.2-16.4,13c6-8.4,6.6-21.8,1.1-30.7
								c-3.3-5.4-11-6.2-15.6-1.9c-3.1,2.9-5.8,6.2-8,9.4c-7.8,11.1-19.6,18.9-27.3,30.1c-13.5,19.8-11.4,45.9-17.8,69
								c-5.5,19.8-33.9,64.4,3.4,133.6c22,40.8,69.4,84.1,92.4,101.8c-17-7.6-161.9-110.4-129.8-218.6c3.2-10.7,8-20.9,11-31.6
								C51.8,157.7,49.8,131.5,63.3,111.8z"/>
							<g transform="translate(104.000000, 61.000000)" class="st3">
								<g>
									<path class="st4" d="M2.6,185c3.4-9.5,8.4-18.9,8.4-29c0-4.3-0.9-8.8,0.2-13c2.3-8.6,11.7-12.8,19-17.9
										c11.5-8,19.1-20.3,25.8-32.6c4.8-8.8,9.2-17.8,13.3-26.9c3.7-8.2,7.9-17.8,8.5-27.1c10.9,13.4,4.9,28.8-2.3,44.6
										c-9.9,21.9-21.9,46.2-37.6,57.2c-7,4.9-16.1,8.9-18.3,17.2c-1.1,4-0.2,8.3-0.2,12.5c0,22.5-34.6,51.7,4.4,139.3
										c8.7,19.5,19.5,38.6,34.6,53.6C22.3,332.6-18.9,244.9,2.6,185z"/>
								</g>
							</g>
							<g transform="translate(147.000000, 107.000000)" class="st5">
								<g>
									<path class="st4" d="M-8.1,50c1.7-1.9,3.3-4,3.6-6.5c0.3-2.6-0.8-5-3.7-6.6c-2.9-1.6-6.4-1.8-9.4-1.1
										C-33.8,39.6-46.3,64-35.5,78.5C-37.7,66.8-23.5,67.6-8.1,50z"/>
								</g>
							</g>
							<g transform="translate(67.000000, 75.000000)">
								<path class="st6" d="M-3.5,36.1C4.2,24.9,16,17.1,23.8,6c4.4-6.4,10.8-13.2,18.8-16.5c7.8-3.2,19.5-3.1,27.4-0.5
									C78.2-8.2,77-7,84.9-0.8c-1.4-0.9-3.2-1.8-6.3-2.8c-8-2.6-19.6-2.7-27.4,0.5C43.2,0.1,36.8,7,32.4,13.3
									C24.6,24.5,12.8,32.2,5.1,43.5c-13.5,19.8-11.4,45.9-17.8,69c-9.6,34.4-57.2,101.7,80.7,222.9
									c-29.9-24.6-66.7-60.9-85.9-96.6c-16.7-31-24.4-68.2-14.4-101.9c3.2-10.7,8.1-20.9,11-31.6C-14.9,82.1-17,55.9-3.5,36.1z"/>
								<path class="st6" d="M87.1,0.9c8.8,6.9,16.5,13.4,20.6,17.1c-4.9-4.1-9.9-8.2-15-12.1C90,3.7,88.5,2.1,87.1,0.9z"/>
							</g>
							<path class="st2" d="M117.1,228.7c0-4.2-0.9-8.4,0.2-12.5c2.2-8.3,11.3-12.3,18.3-17.2c11-7.7,18.4-19.5,24.8-31.3
								c4.6-8.4,8.8-17.1,12.8-25.9c4.8-10.7,10.5-23.8,7.2-35.3c0.6-2.6,1.1-5.1,1.2-7.7c10.8,13.4,4.9,28.8-2.3,44.6
								c-9.9,21.9-21.9,46.2-37.6,57.2c-7,4.9-16.1,8.9-18.3,17.2c-1.1,4-0.2,8.3-0.2,12.5c0,9.7-4.8,18.7-8.1,27.9
								c-20.7,57.4,19,137.7,47,165.4c-19.3-16.2-32.4-39.3-42.7-62.4C83.7,281.1,117.1,250.4,117.1,228.7z"/>
							<path class="st7" d="M152.9,59.8c14.7,1.6,31.6-7.1,41-12.8c8.4-6.7,17.4-12.8,25.7-19.7c10.5-8.7,14.3-20.1,22.3-30.7
								c3.1-4.2,9.5,0.9,6.3,5c-10.2,13.5-4.9,17.4-27,34.6c-11.8,9.2-46.2,32.2-33.8,50.5c2.9,4.3-4.9,5.6-7.8,1.3
								c-1.3-1.9-2.2-3.8-2.9-5.6C170.4,77.9,144.4,58.9,152.9,59.8z"/>
							<path class="st8" d="M152.9,59.8c14.7,1.6,31.6-7.1,41-12.8c8.4-6.7,17.4-12.8,25.7-19.7c10.5-8.7,14.3-20.1,22.3-30.7
								c2.7-3.5,7.6-0.4,7.1,3.2c-7.7-5.7-12.1,18.5-28.1,31.8c-8.4,7-17.5,13.1-26,20c-9.3,5.7-26,14.3-40.7,13.1
								C151.1,61.6,149.9,59.5,152.9,59.8z"/>
							<path class="st7" d="M185,133.4c4.6-16.8-11-41.7-23.6-37.6c-9.9,3.2-8.4,13.1-18.7,13.9c4.8-6.7,5.4-17.6,0.9-25
								c-2.5-4-6.7-6.7-10.8-9c-5.7-3.2-14.7-9.7-20.7-12.3c11.2-5.6,25.2-7.2,37.5-4.6c13.9,2.9,26.6,11.8,34.7,23.5
								c2.3,3.3,6.4,9.9,7.6,13.7c0.6,1.8,1.1,3.6,1.4,5.3c2.4,11.2-0.6,23.6-8,32.2L185,133.4z"/>
							<path class="st9" d="M189.3,90.2c-26.6-19.7-38.6-18.3-51.5-11.5c-1.9-1.3-22-13.8-25.6-15.3C138,50.6,171.3,57.6,189.3,90.2
								z"/>
							<path class="st8" d="M118.7,66.9c-2.3-1.4-4.6-2.6-6.5-3.5c23.5-11.7,53-6.1,70.4,16.6C164.9,61.4,139.6,57.9,118.7,66.9z"/>
							<path class="st10" d="M172.2,69.2c11.3,8.8,18.5,22.1,20,26.7c0.6,1.8,1.1,3.6,1.4,5.3c2.4,11.2-1,23.7-8.5,32.3l0.2-0.5
								c1.6-5.7,0.6-12-1.3-17.6C191.1,98.6,184.4,82.6,172.2,69.2z"/>
						</g>
						<path class="st11" d="M176.3,79.5c-1-8-12.9-16.3-17.7-8.6l0.2,0.6c2.1,1.1,3.4,1.8,4.8,2.3c1.3,0.6,2.8,0.2,4.3,0.6
							c1.4,0.4,2.9,1.1,4.2,1.9c1.4,0.8,2.6,2,3.7,3.4L176.3,79.5z"/>
						<path class="st6" d="M176.4,437.2c-25.9-5.3-45.8-29.1-63.9-46.7C8.7,290.2,44.2,233.2,50.1,196.6
							c4.6-29.1-5.5-42.1,22.6-79.1c11.1-14.6,22.7-28.8,34.1-43.2c2.4-3,7.2,0.6,4.8,3.6c-21.5,27.1-51.8,55-53.8,91.5
							c-0.9,16.1-2,31.2-6,47c-7.1,28.3-19.4,77.3,42.1,146.4c12.7,14.3,26.7,27.4,40.7,40.4c12.5,11.6,25.2,24.5,42.5,28.1
							C181,432,180.2,438,176.4,437.2z"/>
						<path class="st6" d="M119.8,83.8c-4.2,0.9-8.2,2.4-12,4.3c-2.9,1.4-6.7-0.3-7.9-3.2c-1.3-3.2,0.3-6.4,3.2-7.9
							c4.8-2.4,9.9-4,15.2-5.2c3.2-0.7,6.3,2.2,6.7,5.2C125.5,80.5,123,83.1,119.8,83.8z"/>
						<path class="st6" d="M116.4,108.6c-8.3,4.1-14.5,10.3-19.2,18.3c-3.9,6.7-13.5-0.6-9.6-7.2c5.7-9.8,14-17.2,24.1-22.1
							C118.7,94,123.3,105.2,116.4,108.6z"/>
						<path class="st12" d="M100.1,245.7c4.4-7.3,6-15.8,4.9-24.2c-0.5-3.8,5.5-4.6,6-0.8c1.3,10.1-0.8,19.9-6,28.6
							C103,252.6,98.2,249,100.1,245.7z"/>
						<path class="st13" d="M236.8,20.5C225.9,34.2,212,43.1,198,55c-4.4,3.8-8.9,7.9-12,13.4c-7.4,13.1,0.4,23.4,1.9,35
							c0.8,5.3,0.7,10.9-0.2,16.4c-0.8,5.6-2.3,11.1-3.7,16.8l-0.1,0.1c3.1-5,6.3-10.1,8.1-15.9c1.8-5.7,2.5-11.9,2-18.1
							c-0.2-3.1-1-6.2-1.9-9c-0.9-2.8-2-5.5-2.8-8.1c-7.4-24.3,27-33.6,47.9-64.8L236.8,20.5z"/>
					</g>
					<path class="st13" d="M147.3,99.9c2.6-3.8,3.2-11.1-2.9-19.7c-3.3-4.9-9-10.7-15-14.2c-9.2-5.4-18.8-6.4-24.9-14
						c-1.9-2.4-3.3-5.3-3.4-8.7c-2.4,6,1.4,13.7,7.8,18.4c9.8,7.3,17.1,5.9,31.9,21.4c2.1,2.3,4,4.8,5.3,7.6
						C147.3,93.4,147.9,96.5,147.3,99.9z"/>
					<path class="st11" d="M245.1-5.1c-26.3,35.2-62.8,61.6-78.5,62.8c-7.8,0.7-17.5-2.3-28-2.5c-6.5-0.2-13.1,1-18.8,3.9
						c14-4.1,25.5,0.3,37.1,2.6c8,1.5,12.8,1.6,20-0.9c6.4-2.3,11.8-5.7,17.3-9.1C217.9,36.4,235.3,15.8,245.1-5.1z"/>
				</g>
				<path class="st13" d="M254.4-2.7C248.5-3,250-7.8,245-3.6L244.7-3c0.1,1.3,0.6,2.7,1.6,3.5c0.9,0.8,4.9-0.3,5.9-0.7
					c0.9-0.5,1.9-1,2.5-1.9L254.4-2.7z"/>
			</g>
		</g>
	</g>
</g>
</svg>
