<?xml version="1.0" standalone="no"?>
<!DOCTYPE svg PUBLIC "-//W3C//DTD SVG 20010904//EN"
 "http://www.w3.org/TR/2001/REC-SVG-20010904/DTD/svg10.dtd">
<svg version="1.0" xmlns="http://www.w3.org/2000/svg"
 width="1042.000000pt" height="1042.000000pt" viewBox="0 0 1042.000000 1042.000000"
 preserveAspectRatio="xMidYMid meet">
<metadata>
Created by potrace 1.11, written by Peter Selinger 2001-2013
</metadata>
<g transform="translate(0.000000,1042.000000) scale(0.100000,-0.100000)"
fill="#000000" stroke="none">
<path d="M630 7505 c0 -20 -32 -85 -42 -85 -4 0 -8 -13 -8 -29 0 -32 36 -85
52 -75 10 7 189 -108 246 -159 20 -18 59 -52 87 -77 105 -93 354 -350 455
-470 242 -287 408 -548 477 -750 30 -90 32 -102 28 -210 -2 -63 -5 -126 -8
-140 -2 -14 -8 -50 -12 -80 -4 -30 -9 -63 -11 -73 -24 -128 -20 -354 8 -452 6
-22 12 -44 14 -50 1 -5 12 -30 23 -55 12 -25 20 -38 17 -30 -20 77 -40 237
-28 225 3 -3 7 -11 8 -18 1 -7 5 -32 9 -55 3 -24 15 -73 26 -109 11 -36 21
-72 22 -81 0 -10 -19 -57 -43 -107 -68 -141 -171 -233 -283 -254 l-42 -8 38
-8 c120 -24 277 58 365 191 l30 45 27 -58 c25 -55 81 -137 134 -197 29 -31
163 -143 265 -221 37 -27 144 -128 239 -224 94 -96 202 -198 239 -228 205
-167 441 -255 853 -318 622 -95 667 -105 1020 -240 264 -101 479 -162 630
-180 28 -3 59 -8 70 -10 28 -6 229 -18 290 -18 67 1 277 13 284 17 3 2 33 7
66 11 33 3 112 17 175 30 484 100 998 346 1510 723 98 72 243 185 260 202 3 3
32 27 65 55 33 27 65 54 71 60 6 5 46 42 90 80 203 180 457 439 674 685 46 52
133 147 194 211 310 322 464 534 559 769 45 110 71 212 63 243 -7 30 -51 48
-84 36 -25 -9 -26 -12 -72 -157 -32 -102 -33 -102 -119 -186 -338 -331 -836
-631 -1386 -836 -172 -64 -451 -148 -555 -166 -14 -3 -41 -9 -60 -14 -36 -10
-267 -48 -330 -56 -157 -17 -404 -23 -555 -11 -85 6 -282 34 -294 42 -3 1 -22
6 -41 9 -36 5 -207 58 -245 75 -53 24 -208 83 -275 104 -122 39 -195 49 -336
44 -241 -8 -308 31 -461 265 -128 198 -217 295 -386 421 -196 148 -551 341
-927 504 -97 43 -184 87 -264 137 -161 100 -269 131 -461 131 -148 -1 -223
-13 -352 -59 -130 -47 -207 -64 -274 -60 -138 6 -253 74 -414 243 -114 120
-119 125 -146 161 -15 19 -35 44 -45 55 -11 11 -48 54 -84 95 -97 112 -275
287 -365 359 -104 83 -155 116 -295 186 -63 32 -151 83 -196 112 -44 29 -92
53 -106 53 -17 0 -28 8 -36 25 -12 27 -42 34 -42 10z m1020 -820 c14 -19 14
-19 -2 -6 -10 7 -18 18 -18 24 0 6 1 8 3 6 1 -2 9 -13 17 -24z m31 -42 c13
-16 12 -17 -3 -4 -10 7 -18 15 -18 17 0 8 8 3 21 -13z m44 -53 c10 -11 16 -20
13 -20 -3 0 -13 9 -23 20 -10 11 -16 20 -13 20 3 0 13 -9 23 -20z"/>
</g>
</svg>
