<?xml version="1.0" encoding="utf-8"?>
<!-- Generator: Adobe Illustrator 23.0.1, SVG Export Plug-In . SVG Version: 6.00 Build 0)  -->
<svg version="1.1" id="Layer_1" xmlns="http://www.w3.org/2000/svg" xmlns:xlink="http://www.w3.org/1999/xlink" x="0px" y="0px"
	 viewBox="0 0 3116 1435" style="enable-background:new 0 0 3116 1435;" xml:space="preserve">
<style type="text/css">
	.st0{fill:none;stroke:#FEFFFE;stroke-width:2.81;stroke-linecap:round;stroke-linejoin:round;stroke-miterlimit:1.5;}
	.st1{fill:#ED3B3B;}
	.st2{fill:#FEFFFE;}
	.st3{fill:#4CB04F;}
	.st4{fill:#FFD71F;}
	.st5{fill:#E7A300;}
	.st6{opacity:0.34;filter:url(#blur);}
	.st7{enable-background:new    ;}
	.st8{font-family:'Roboto-Medium';}
	.st9{font-size:22.803px;}
	.st10{font-family:'Roboto-Regular';}
	.st11{font-size:8.5097px;}
	.st12{fill-opacity:0.3333;}
	.st13{fill:#EBB800;}
	.st14{font-family:'Roboto-Bold';}
	.st15{font-size:42.6679px;}
</style>
<filter  height="200%" id="blur">
	<feGaussianBlur  in="SourceGraphic" stdDeviation="33"></feGaussianBlur>
</filter>
<g xmlns:serif="http://www.serif.com/">
	<g>
		<g>
			<g id="Layer1">
				<g transform="matrix(0.922577,0,0,0.922577,120.115,167.688)">
					<path class="st0" d="M973.6,303h383.7"/>
				</g>
				<g transform="matrix(0.922577,0,0,0.922577,154.435,147.874)">
					<path class="st0" d="M973.3,302.8H1357"/>
				</g>
				<g transform="matrix(0.922577,0,0,0.922577,188.755,128.059)">
					<path class="st0" d="M974,302.6h382.6"/>
				</g>
				<g transform="matrix(0.922577,0,0,0.922577,223.075,108.244)">
					<path class="st0" d="M973.7,302.4h383.7"/>
				</g>
				<g transform="matrix(3.73426,0,0,3.73426,-3399.42,-3143.44)">
					<path class="st1" d="M1470.5,943.9c-18.8-10.9-42.1-10.9-60.9,0l0,0c-6.2,3.6-10.1,10.2-10.1,17.4s3.8,13.8,10.1,17.4l0,0
						c18.8,10.9,42.1,10.9,60.9,0l0,0c6.2-3.6,10.1-10.2,10.1-17.4C1480.6,954.2,1476.8,947.5,1470.5,943.9L1470.5,943.9z"/>
				</g>
				<g transform="matrix(0.922577,0,0,0.922577,87.183,164.442)">
					<path class="st1" d="M1792.4,565.1c-18.8-10.9-42-10.9-60.8,0l0,0c-6.2,3.6-10.1,10.3-10.1,17.5s3.8,13.9,10.1,17.5l0,0
						c18.8,10.8,42,10.8,60.8,0l0,0c6.2-3.6,10.1-10.3,10.1-17.5C1802.5,575.4,1798.7,568.7,1792.4,565.1L1792.4,565.1z"/>
				</g>
				<g transform="matrix(0.370771,0,0,0.370771,823.567,763.519)">
					<path class="st2" d="M2428.9-183.6c-18.9-10.9-42.1-10.9-61,0l0,0c-6.2,3.6-10.1,10.2-10.1,17.4s3.8,13.8,10.1,17.4l0,0
						c18.9,10.9,42.1,10.9,61,0l0,0c6.2-3.6,10.1-10.2,10.1-17.4C2438.9-173.3,2435.1-180,2428.9-183.6L2428.9-183.6z"/>
				</g>
				<g transform="matrix(0.922577,0,0,0.922577,21.27,126.387)">
					<path class="st1" d="M1792.4,565.1c-18.8-10.9-42-10.9-60.8,0l0,0c-6.2,3.6-10.1,10.3-10.1,17.5s3.8,13.9,10.1,17.5l0,0
						c18.8,10.8,42,10.8,60.8,0l0,0c6.2-3.6,10.1-10.3,10.1-17.5C1802.5,575.4,1798.7,568.7,1792.4,565.1L1792.4,565.1z"/>
				</g>
				<g transform="matrix(0.370771,0,0,0.370771,1082.66,577.461)">
					<path class="st3" d="M2428.7-183.5c-18.9-10.9-42.1-10.9-61,0l0,0c-6.2,3.6-10.1,10.2-10.1,17.4s3.8,13.8,10.1,17.4l0,0
						c18.9,10.9,42.1,10.9,61,0l0,0c6.2-3.6,10.1-10.2,10.1-17.4C2438.7-173.2,2434.9-179.9,2428.7-183.5L2428.7-183.5z"/>
				</g>
				<g transform="matrix(0.922577,0,0,0.922577,348.481,-2.02452)">
					<path class="st3" d="M1586.1,567.7h-354.5l31.1,18.4h354.5L1586.1,567.7z"/>
				</g>
				<g transform="matrix(0.922577,0,0,0.922577,396.167,25.5072)">
					<path class="st3" d="M1586.1,568.2h-354.5l31.1,18.4h354.5L1586.1,568.2z"/>
				</g>
				<g transform="matrix(0.922577,0,0,0.922577,443.854,53.0388)">
					<path class="st3" d="M1586.1,567.6h-354.5l31.1,18.4h354.5L1586.1,567.6z"/>
				</g>
				<g transform="matrix(0.922577,0,0,0.922577,491.54,80.5705)">
					<path class="st3" d="M1586,568.1h-354.5l31.1,18.4h354.5L1586,568.1z"/>
				</g>
				<g transform="matrix(0.922577,0,0,0.922577,539.226,108.102)">
					<path class="st3" d="M1586,567.5h-354.5l31.1,18.4h354.5L1586,567.5z"/>
				</g>
				<g transform="matrix(0.922577,0,0,0.922577,154.035,203.038)">
					<path class="st1" d="M1792.4,565.1c-18.8-10.9-42-10.9-60.8,0l0,0c-6.2,3.6-10.1,10.3-10.1,17.5s3.8,13.9,10.1,17.5l0,0
						c18.8,10.8,42,10.8,60.8,0l0,0c6.2-3.6,10.1-10.3,10.1-17.5C1802.5,575.4,1798.7,568.7,1792.4,565.1L1792.4,565.1z"/>
				</g>
				<g transform="matrix(0.725524,0,0,0.725524,-297.484,-158.502)">
					<path class="st4" d="M1908.8,428.6c-18.8-10.9-42.1-10.9-60.9,0l0,0c-6.2,3.6-10.1,10.2-10.1,17.4c0,7.2,3.8,13.8,10.1,17.4
						l0,0c18.8,10.9,42.1,10.9,60.9,0l0,0c6.2-3.6,10.1-10.2,10.1-17.4C1918.9,438.8,1915,432.2,1908.8,428.6L1908.8,428.6z"/>
				</g>
				<g transform="matrix(0.922577,0,0,0.922577,112.074,100.871)">
					<path class="st4" d="M2769.3,762l-437,252.2c0,0-210.7-121.6-351.7-203.1c-25.7-14.8-41.5-42.2-41.5-71.9s15.8-57.1,41.5-71.9
						c70-40.4,155.9-90,219.9-127c57.3-33.1,127.9-33.1,185.2,0C2524.1,620.4,2769.3,762,2769.3,762z"/>
				</g>
				<path class="st4" d="M1925.2,900h-894L637,672.4V531.6L1062.6,402L1925.2,900z"/>
				<g transform="matrix(0.798451,0,0,0.798451,-27.8219,353.547)">
					<path class="st2" d="M1378.3,262.4l-23.4,13.5l79.3,45.8l23.4-13.5L1378.3,262.4z"/>
				</g>
				<g transform="matrix(0.798451,0,0,0.798451,48.2442,397.463)">
					<path class="st2" d="M1378.3,262.4l-23.4,13.5l79.3,45.8l23.4-13.5L1378.3,262.4z"/>
				</g>
				<g transform="matrix(0.922577,0,0,0.922577,89.391,184.033)">
					<path class="st5" d="M1586.1,567.6h-354.5l31.1,18.4h354.5L1586.1,567.6z"/>
				</g>
				<g transform="matrix(0.922577,0,0,0.922577,137.077,211.565)">
					<path class="st5" d="M1586.1,568.1h-354.5l31.1,18.4h354.5L1586.1,568.1z"/>
				</g>
				<g transform="matrix(0.922577,0,0,0.922577,184.763,239.096)">
					<path class="st5" d="M1586.1,567.5h-354.5l31.1,18.4h354.5L1586.1,567.5z"/>
				</g>
				<g transform="matrix(0.922577,0,0,0.922577,232.45,266.628)">
					<path class="st5" d="M1586.1,568h-354.5l31.1,18.4h354.5L1586.1,568z"/>
				</g>
				<g transform="matrix(0.922577,0,0,0.922577,280.136,294.16)">
					<path class="st5" d="M1586.1,567.5h-354.5l31.1,18.4h354.5L1586.1,567.5z"/>
				</g>
				<path class="st1" d="M845.2,900c-3.4,0-6.2-2.8-6.2-6.2c0,0,0,0,0-0.1c0-49.1,26.2-94.4,68.7-119l0,0
					c128.7-74.3,287.2-74.3,415.9,0l0,0c42.5,24.6,68.7,69.9,68.7,119c0,0,0,0,0,0.1c0,3.4-2.8,6.2-6.2,6.2H845.2z"/>
				<g transform="matrix(0.798451,0,0,0.798451,-115.12,574.865)">
					<path class="st2" d="M1378.3,262.4l-23.4,13.5l79.3,45.8l23.4-13.5L1378.3,262.4z"/>
				</g>
				<g transform="matrix(0.798451,0,0,0.798451,-39.0534,618.781)">
					<path class="st2" d="M1378.3,262.3l-23.4,13.5l79.3,45.8l23.4-13.5L1378.3,262.3z"/>
				</g>
				<g transform="matrix(-0.798451,0,0,0.798451,2177.17,575.216)">
					<path class="st2" d="M390.2,262.4l-23.4,13.5l79.3,45.8l23.4-13.5L390.2,262.4z"/>
				</g>
				<g transform="matrix(-0.798451,0,0,0.798451,2101.1,619.133)">
					<path class="st2" d="M390.2,262.3l-23.4,13.5l79.3,45.8l23.4-13.5L390.2,262.3z"/>
				</g>
				<g transform="matrix(1.72617,0,0,1.72617,-510.116,-60.0766)">
					<g class="st6">
						<path d="M2041.6,477.8l-37.1-21.4l-5,2.9c-7.2,4.2-16.2,4.2-23.4,0c-26.2-15.1-89.4-51.6-115.6-66.7c-2.4-1.4-3.9-4-3.9-6.8
							s1.5-5.4,3.9-6.8l4.9-2.9l-33.9-19.6c-15.3-8.8-34.2-8.8-49.5,0c-92.7,53.5-418.2,241.5-500.7,289.1c-4,2.2-6.4,6.5-6.4,11
							s2.5,8.7,6.4,11c45.1,26,158.4,91.4,209.6,121c16,9.2,35.8,9.2,51.8,0c30-17.3,83.3-48.1,144.7-83.5l48.4,27.9l129.5-74.7
							l-48.4-27.9c95.3-55,185.9-107.4,224.7-129.8c4.1-2.3,6.6-6.7,6.6-11.4S2045.7,480.2,2041.6,477.8z"/>
					</g>
					<g transform="matrix(1.72617,0,0,1.72617,-510.116,-60.0766)">
						<path class="st2" d="M1456.8,265.6l21.5,12.4c2.4,1.4,3.8,3.9,3.8,6.6s-1.5,5.2-3.8,6.6c-48.2,27.8-234.7,135.5-289,166.9
							c-9.3,5.4-20.7,5.4-30,0c-29.7-17.1-95.3-55-121.4-70.1c-2.3-1.3-3.7-3.8-3.7-6.4s1.4-5.1,3.7-6.4
							c47.8-27.6,236.4-136.5,290-167.5c8.9-5.1,19.8-5.1,28.7,0l19.6,11.3l-2.9,1.7c-1.4,0.8-2.3,2.3-2.3,3.9
							c0,1.6,0.9,3.1,2.3,3.9c15.2,8.8,51.8,29.9,67,38.7c4.2,2.4,9.4,2.4,13.6,0L1456.8,265.6z"/>
					</g>
					<g transform="matrix(2.78788,0,0,2.78788,-2710.08,-1749.62)">
						<path class="st2" d="M1387.7,798.9c-10.9-6.3-24.4-6.3-35.3,0l0,0c-3.6,2.1-5.8,5.9-5.8,10.1c0,4.2,2.2,8,5.8,10.1l0,0
							c10.9,6.3,24.4,6.3,35.3,0l0,0c3.6-2.1,5.8-5.9,5.8-10.1C1393.5,804.8,1391.3,801,1387.7,798.9L1387.7,798.9z"/>
					</g>
				</g>
				<g transform="matrix(36.4512,20.977,-36.1382,20.3667,-22223,-40371.2)">
					<g class="st7">
						<path class="st2" d="M1294.3,654.2c0.8,0,1.5,0.2,1.9,0.6s0.7,1,0.7,1.7c0,0.7-0.2,1.2-0.7,1.7s-1.1,0.6-1.9,0.6h-1.2v1.6
							l0.8,0.1v0.9h-3v-0.9l0.8-0.1v-5.2l-0.8-0.1v-0.9h0.8H1294.3z M1293.1,657.6h1.2c0.4,0,0.7-0.1,0.9-0.3
							c0.2-0.2,0.3-0.5,0.3-0.8c0-0.3-0.1-0.6-0.3-0.9c-0.2-0.2-0.5-0.3-0.9-0.3h-1.2V657.6z"/>
						<path class="st2" d="M1300,661.5c-0.8,0-1.4-0.2-1.8-0.7c-0.5-0.5-0.7-1.1-0.7-1.9v-0.2c0-0.8,0.2-1.4,0.7-2
							c0.4-0.5,1-0.8,1.8-0.8c0.7,0,1.3,0.2,1.7,0.7c0.4,0.4,0.6,1,0.6,1.8v0.8h-3.2l0,0c0,0.4,0.1,0.6,0.4,0.9
							c0.2,0.2,0.5,0.3,0.9,0.3c0.3,0,0.6,0,0.8-0.1c0.2-0.1,0.4-0.2,0.7-0.3l0.4,0.9c-0.2,0.2-0.5,0.3-0.9,0.4
							S1300.4,661.5,1300,661.5z M1299.9,657c-0.3,0-0.5,0.1-0.6,0.3c-0.2,0.2-0.3,0.5-0.3,0.8l0,0h1.8V658c0-0.3-0.1-0.6-0.2-0.7
							C1300.4,657.1,1300.2,657,1299.9,657z"/>
						<path class="st2" d="M1302.7,656.9V656h2.1l0.1,0.6c0.2-0.2,0.3-0.4,0.6-0.5c0.2-0.1,0.5-0.2,0.8-0.2c0.7,0,1.2,0.3,1.5,0.8
							c0.4,0.5,0.5,1.2,0.5,2v0.1c0,0.8-0.2,1.4-0.5,1.9c-0.4,0.5-0.9,0.7-1.5,0.7c-0.3,0-0.5-0.1-0.7-0.2c-0.2-0.1-0.4-0.3-0.6-0.5
							v1.5l0.7,0.1v0.9h-2.8l0-0.9l0.7-0.1V657L1302.7,656.9z M1306.9,658.7c0-0.5-0.1-0.9-0.3-1.2c-0.2-0.3-0.4-0.5-0.8-0.5
							c-0.2,0-0.4,0-0.6,0.1s-0.3,0.2-0.4,0.4v2.3c0.1,0.2,0.2,0.3,0.4,0.3s0.3,0.1,0.6,0.1c0.3,0,0.6-0.1,0.8-0.4
							c0.2-0.3,0.2-0.6,0.2-1.1V658.7z"/>
						<path class="st2" d="M1308.9,656.9V656l2.1,0l0.1,0.6c0.2-0.2,0.3-0.4,0.6-0.5c0.2-0.1,0.5-0.2,0.8-0.2c0.7,0,1.2,0.3,1.5,0.8
							c0.4,0.5,0.5,1.2,0.5,2v0.1c0,0.8-0.2,1.4-0.5,1.9c-0.4,0.5-0.9,0.7-1.5,0.7c-0.3,0-0.5-0.1-0.7-0.2c-0.2-0.1-0.4-0.3-0.6-0.5
							v1.5l0.7,0.1v0.9h-2.8v-0.9l0.7-0.1V657L1308.9,656.9z M1313,658.7c0-0.5-0.1-0.9-0.3-1.2c-0.2-0.3-0.4-0.5-0.8-0.5
							c-0.2,0-0.4,0-0.6,0.1c-0.2,0.1-0.3,0.2-0.4,0.4v2.3c0.1,0.2,0.2,0.3,0.4,0.3s0.3,0.1,0.6,0.1c0.3,0,0.6-0.1,0.8-0.4
							c0.2-0.3,0.2-0.6,0.2-1.1V658.7z"/>
						<path class="st2" d="M1317.6,661.5c-0.8,0-1.4-0.2-1.8-0.7c-0.5-0.5-0.7-1.1-0.7-1.9v-0.2c0-0.8,0.2-1.4,0.7-2
							c0.4-0.5,1-0.8,1.8-0.8c0.7,0,1.3,0.2,1.7,0.7c0.4,0.4,0.6,1,0.6,1.8v0.8h-3.2l0,0c0,0.4,0.1,0.6,0.4,0.9
							c0.2,0.2,0.5,0.3,0.9,0.3c0.3,0,0.6,0,0.8-0.1c0.2-0.1,0.4-0.2,0.7-0.3l0.4,0.9c-0.2,0.2-0.5,0.3-0.9,0.4
							C1318.5,661.4,1318.1,661.5,1317.6,661.5z M1317.5,657c-0.3,0-0.5,0.1-0.6,0.3c-0.2,0.2-0.3,0.5-0.3,0.8l0,0l1.8,0V658
							c0-0.3-0.1-0.6-0.2-0.7C1318,657.1,1317.8,657,1317.5,657z"/>
						<path class="st2" d="M1320.6,660.5l0.7-0.1V657l-0.8-0.1V656l2.1,0l0.1,0.8c0.1-0.3,0.3-0.5,0.5-0.6c0.2-0.2,0.4-0.2,0.7-0.2
							c0.1,0,0.2,0,0.2,0c0.1,0,0.2,0,0.2,0l-0.2,1.3l-0.6,0c-0.2,0-0.4,0-0.5,0.1c-0.1,0.1-0.2,0.2-0.3,0.4v2.6l0.7,0.1v0.9h-2.8
							V660.5z"/>
					</g>
				</g>
				<g transform="matrix(0.922577,0,0,0.922577,-79.2613,159.978)" class="st6">
					<path d="M1429.3,469.1l519.2-299.7c15.9-9.2,35.5-9.2,51.4,0c52.3,30.2,170.2,98.3,217.9,125.8c2.1,1.2,3.8,2.9,4.9,4.9
						c4.3,4.8,9.6,13.9,8.1,29.4c-0.9,9.6-6.3,15.7-10.6,19.1c-0.7,0.7-1.5,1.3-2.4,1.8c-86.3,49.8-420,242.5-517.5,298.7
						c-16.6,9.6-37.1,9.6-53.7,0l-213.9-123.5c0,0-15.1-6.2-16.6-22.8c-1.8-19.2,6.8-28.7,11-32.1c0.6-0.5,1.3-1,2-1.5
						C1429.2,469.2,1429.3,469.1,1429.3,469.1z"/>
				</g>
				<g transform="matrix(0.922577,0,0,0.922577,-79.2613,159.978)">
					<path class="st2" d="M1429.3,360.8l519.2-299.7c15.9-9.2,35.5-9.2,51.4,0c52.3,30.2,170.2,98.3,217.9,125.8
						c2.1,1.2,3.8,2.9,4.9,4.9c4.3,4.8,9.6,13.9,8.1,29.4c-0.9,9.6-6.3,15.7-10.6,19.1c-0.7,0.7-1.5,1.3-2.4,1.8
						c-86.3,49.8-420,242.5-517.5,298.7c-16.6,9.6-37.1,9.6-53.7,0l-213.9-123.5c0,0-15.1-6.2-16.6-22.8c-1.8-19.2,6.8-28.7,11-32.1
						c0.6-0.5,1.3-1,2-1.5C1429.2,360.8,1429.3,360.8,1429.3,360.8z"/>
				</g>
				<g transform="matrix(-0.922577,0,0,0.922577,2456.16,17.1533)">
					<path class="st3" d="M631.3,435.1c-0.8-0.5-1.8-0.5-2.6,0s-1.3,1.3-1.3,2.3l0,0c0,2.8,1.5,5.4,4,6.9
						c5.4,3.1,53.1,30.7,58.6,33.8c0.8,0.5,1.8,0.5,2.6,0s1.3-1.3,1.3-2.3l0,0c0-2.8-1.5-5.4-4-6.9
						C684.4,465.8,636.8,438.3,631.3,435.1z"/>
				</g>
				<g transform="matrix(0.922577,0,0,0.922577,-79.2613,155.365)">
					<path class="st3" d="M1634.6,523c1.9,1.1,3.4,3.6,3.4,5.5s-1.5,2.5-3.4,1.4s-3.4-3.6-3.4-5.5S1632.7,521.9,1634.6,523z
						 M1623.5,516.6c1.9,1.1,3.4,3.6,3.4,5.5s-1.5,2.5-3.4,1.4s-3.4-3.6-3.4-5.5S1621.6,515.5,1623.5,516.6z M1612.4,510.2
						c1.9,1.1,3.4,3.6,3.4,5.5s-1.5,2.5-3.4,1.4s-3.4-3.6-3.4-5.5C1609,509.7,1610.6,509.1,1612.4,510.2z M1601.4,503.8
						c1.9,1.1,3.4,3.6,3.4,5.5s-1.5,2.5-3.4,1.4s-3.4-3.6-3.4-5.4C1598,503.3,1599.5,502.7,1601.4,503.8z M1590.3,497.4
						c1.9,1.1,3.4,3.6,3.4,5.5s-1.5,2.5-3.4,1.4s-3.4-3.6-3.4-5.5S1588.4,496.3,1590.3,497.4z M1579.2,491c1.9,1.1,3.4,3.6,3.4,5.5
						s-1.5,2.5-3.4,1.4s-3.4-3.6-3.4-5.5C1575.8,490.5,1577.4,489.9,1579.2,491z"/>
				</g>
				<g transform="matrix(0.922577,0,0,0.922577,-209.398,80.2303)">
					<path class="st3" d="M1634.6,523c1.9,1.1,3.4,3.6,3.4,5.5s-1.5,2.5-3.4,1.4s-3.4-3.6-3.4-5.5S1632.7,521.9,1634.6,523z
						 M1623.5,516.6c1.9,1.1,3.4,3.6,3.4,5.5s-1.5,2.5-3.4,1.4s-3.4-3.6-3.4-5.5S1621.6,515.5,1623.5,516.6z M1612.4,510.2
						c1.9,1.1,3.4,3.6,3.4,5.5s-1.5,2.5-3.4,1.4s-3.4-3.6-3.4-5.5C1609,509.7,1610.6,509.1,1612.4,510.2z M1601.4,503.8
						c1.9,1.1,3.4,3.6,3.4,5.5s-1.5,2.5-3.4,1.4s-3.4-3.6-3.4-5.4C1598,503.3,1599.5,502.7,1601.4,503.8z M1590.3,497.4
						c1.9,1.1,3.4,3.6,3.4,5.5s-1.5,2.5-3.4,1.4s-3.4-3.6-3.4-5.5S1588.4,496.3,1590.3,497.4z M1579.2,491c1.9,1.1,3.4,3.6,3.4,5.5
						s-1.5,2.5-3.4,1.4s-3.4-3.6-3.4-5.5C1575.8,490.5,1577.4,489.9,1579.2,491z"/>
				</g>
				<g transform="matrix(0.922577,0,0,0.922577,-79.2613,159.978)">
					<path class="st1" d="M2166.3,168.9l37.1,21.4c4.1,2.4,6.6,6.7,6.6,11.4s-2.5,9.1-6.6,11.4c-83.2,48-405,233.9-498.9,288
						c-16,9.2-35.8,9.2-51.8,0c-51.2-29.6-164.5-95-209.6-121c-3.9-2.3-6.4-6.5-6.4-11s2.4-8.8,6.4-11
						c82.5-47.6,408-235.6,500.7-289.1c15.3-8.8,34.2-8.8,49.5,0l33.9,19.6l-4.9,2.9c-2.4,1.4-3.9,4-3.9,6.8s1.5,5.4,3.9,6.8
						c26.2,15.1,89.4,51.6,115.6,66.7c7.2,4.2,16.2,4.2,23.4,0L2166.3,168.9z"/>
				</g>
				<g transform="matrix(0.922577,0,0,0.922577,91.4373,-268.095)">
					<path class="st2" d="M1792.4,565.2c-18.8-10.9-42-10.9-60.8,0l0,0c-6.2,3.6-10.1,10.3-10.1,17.5s3.8,13.9,10.1,17.5l0,0
						c18.8,10.8,42,10.8,60.8,0l0,0c6.2-3.6,10.1-10.3,10.1-17.5S1798.7,568.8,1792.4,565.2L1792.4,565.2z"/>
				</g>
				<g transform="matrix(0.10442,0,0,0.10442,1382.9,705.865)">
					<path class="st2" d="M5142.3-3376.1c-19-10.9-42.3-10.9-61.3,0l0,0c-6.2,3.6-10,10.2-10,17.3s3.8,13.8,10,17.3l0,0
						c18.9,10.9,42.3,10.9,61.3,0l0,0c6.2-3.6,10-10.2,10-17.3C5152.3-3365.9,5148.5-3372.5,5142.3-3376.1L5142.3-3376.1z"/>
				</g>
				<g transform="matrix(0.10442,0,0,0.10442,1369.08,713.844)">
					<path class="st2" d="M5142.3-3376.1c-19-10.9-42.3-10.9-61.3,0l0,0c-6.2,3.6-10,10.2-10,17.3s3.8,13.8,10,17.3l0,0
						c18.9,10.9,42.3,10.9,61.3,0l0,0c6.2-3.6,10-10.2,10-17.3C5152.3-3365.9,5148.5-3372.5,5142.3-3376.1L5142.3-3376.1z"/>
				</g>
				<g transform="matrix(0.10442,0,0,0.10442,1355.08,721.928)">
					<path class="st2" d="M5142.3-3376.1c-19-10.9-42.3-10.9-61.3,0l0,0c-6.2,3.6-10,10.2-10,17.3s3.8,13.8,10,17.3l0,0
						c18.9,10.9,42.3,10.9,61.3,0l0,0c6.2-3.6,10-10.2,10-17.3C5152.3-3365.9,5148.5-3372.5,5142.3-3376.1L5142.3-3376.1z"/>
				</g>
				<g transform="matrix(0.739177,0,0,0.739177,336.183,-68.9845)">
					<path class="st4" d="M1898.5,440.4c-18.8-10.9-42-10.9-60.9,0l0,0c-6.2,3.6-10.1,10.3-10.1,17.5s3.8,13.8,10.1,17.4l0,0
						c18.8,10.9,42,10.9,60.9,0l0,0c6.2-3.6,10.1-10.2,10.1-17.4S1904.8,444,1898.5,440.4L1898.5,440.4z"/>
				</g>
				<g transform="matrix(1.88564,1.08515,-1.65544,0.932972,-124.648,-1304.41)">
					<text transform="matrix(0.5261 0 0 0.5262 1201.2026 304.3345)" class="st2 st8 st9">Software that </text>
					<text transform="matrix(0.5261 0 0 0.5262 1201.2021 318.7523)" class="st2 st8 st9">powers your </text>
					<text transform="matrix(0.5261 0 0 0.5262 1201.2026 333.1176)" class="st2 st8 st9">business</text>
				</g>
				<g transform="matrix(0.797775,0.46336,-0.921199,0.531855,911.073,-8.48293)">
					<text transform="matrix(0.9401 0 0 0.9401 770.7515 -54.5284)" class="st2 st10 st11">Lorem ipsum dolor sit amet, consectetur adipiscing elit. Sed non urna</text>
					<text transform="matrix(0.9401 0 0 0.9401 770.7493 -44.9411)" class="st2 st10 st11">aliquam, bibendum nibh vel, sodales tellus. Nam ullamcorper a quam eu</text>
					<text transform="matrix(0.9401 0 0 0.9401 770.7515 -35.3546)" class="st2 st10 st11">efficitur. </text>
				</g>
				<g transform="matrix(0.922577,0,0,0.922577,120.115,167.688)">
					<path class="st4" d="M1734.9,350.6l-242.6,140.1l-52.4-30.3l242.6-140.1L1734.9,350.6z"/>
				</g>
				<g transform="matrix(0.922577,0,0,0.922577,109.915,189.721)">
					<g>
						<path class="st12" d="M1539.6,209.1L1297,349.2l135.5,78.3l242.6-140.1L1539.6,209.1z"/>
					</g>
				</g>
				<g transform="matrix(0.922577,0,0,0.922577,109.915,145.256)">
					<path class="st4" d="M1539.6,209.1L1297,349.2l135.5,78.3l242.6-140.1L1539.6,209.1z"/>
				</g>
				<g transform="matrix(0.798451,0,0,0.798451,379.808,167.233)">
					<path class="st13" d="M1378.2,262.5l-14.7,8.5l135.5,78.3l14.7-8.5L1378.2,262.5z"/>
				</g>
				<g transform="matrix(0.798451,0,0,0.798451,354.394,181.906)">
					<path class="st13" d="M1378.2,262.5l-14.7,8.5l135.5,78.3l14.7-8.5L1378.2,262.5z"/>
				</g>
				<g transform="matrix(0.798451,0,0,0.798451,328.98,196.578)">
					<path class="st13" d="M1378.2,262.5l-14.7,8.5l135.5,78.3l14.7-8.5L1378.2,262.5z"/>
				</g>
				<g transform="matrix(0.798451,0,0,0.798451,303.566,211.251)">
					<path class="st13" d="M1378.2,262.4l-14.7,8.5l135.5,78.3l14.7-8.5L1378.2,262.4z"/>
				</g>
				<g transform="matrix(0.798451,0,0,0.798451,281.186,224.172)">
					<path class="st13" d="M1378.2,262.4l-14.7,8.5l82.3,47.5l14.7-8.5L1378.2,262.4z"/>
				</g>
				<g transform="matrix(0.798451,0,0,0.798451,258.807,237.093)">
					<path class="st13" d="M1378.3,262.4l-14.7,8.5l82.3,47.5l14.7-8.5L1378.3,262.4z"/>
				</g>
				<g transform="matrix(0.798451,0,0,0.798451,236.427,250.014)">
					<path class="st13" d="M1378.3,262.4l-14.7,8.5l82.3,47.5l14.7-8.5L1378.3,262.4z"/>
				</g>
				<g transform="matrix(0.798451,0,0,0.798451,282.282,223.54)">
					<path class="st13" d="M1468.5,314.5l-72.2,41.7l45.3,26.1l72.2-41.7L1468.5,314.5z"/>
				</g>
				<g transform="matrix(1.72617,0,0,1.72617,-433.279,-404.035)">
					<g transform="matrix(1,0,0,1,-986.839,18.079)">
						<g class="st6">
							<path d="M1967.4,460.9l37.1,21.4c4.1,2.4,6.6,6.7,6.6,11.4c0,4.7-2.5,9.1-6.6,11.4c-83.2,48-405,233.9-498.9,288
								c-16,9.2-35.8,9.2-51.8,0c-51.2-29.6-164.5-95-209.6-121c-3.9-2.3-6.4-6.5-6.4-11s2.4-8.8,6.4-11
								c82.5-47.6,408-235.6,500.7-289.1c15.3-8.8,34.2-8.8,49.5,0l33.9,19.6l-4.9,2.9c-2.4,1.4-3.9,4-3.9,6.8s1.5,5.4,3.9,6.8
								c26.2,15.1,89.4,51.6,115.6,66.7c7.2,4.2,16.2,4.2,23.4,0L1967.4,460.9z"/>
						</g>
						<g transform="matrix(1,0,0,1,-986.839,18.079)">
							<path class="st1" d="M2954.2,384.9l37.1,21.4c4.1,2.4,6.6,6.7,6.6,11.4c0,4.7-2.5,9.1-6.6,11.4c-83.2,48-405,233.9-498.9,288
								c-16,9.2-35.8,9.2-51.8,0c-51.2-29.6-164.5-95-209.6-121c-3.9-2.3-6.4-6.5-6.4-11s2.4-8.8,6.4-11
								c82.5-47.6,408-235.6,500.7-289.1c15.3-8.8,34.2-8.8,49.5,0l33.9,19.6l-4.9,2.9c-2.4,1.4-3.9,4-3.9,6.8s1.5,5.4,3.9,6.8
								c26.2,15.1,89.4,51.6,115.6,66.7c7.2,4.2,16.2,4.2,23.4,0L2954.2,384.9z"/>
						</g>
					</g>
					<g transform="matrix(1,0,0,1,-801.815,-445.918)">
						<path class="st2" d="M1593.6,799.4c-18.8-10.9-42.1-10.9-60.9,0l0,0c-6.2,3.6-10.1,10.2-10.1,17.4s3.8,13.8,10.1,17.4l0,0
							c18.8,10.9,42.1,10.9,60.9,0l0,0c6.2-3.6,10.1-10.2,10.1-17.4C1603.7,809.6,1599.8,802.9,1593.6,799.4L1593.6,799.4z"/>
					</g>
					<g transform="matrix(0.113183,0,0,0.113183,598.028,609.778)">
						<path class="st2" d="M3384.4-1309.6c-18.9-10.9-42.1-10.9-61,0l0,0c-6.2,3.6-10.1,10.2-10.1,17.4c0,7.2,3.8,13.8,10.1,17.4
							l0,0c18.9,10.9,42.1,10.9,61,0l0,0c6.2-3.6,10.1-10.2,10.1-17.4S3390.7-1306,3384.4-1309.6
							C3384.5-1309.6,3384.5-1309.6,3384.4-1309.6z"/>
					</g>
					<g transform="matrix(0.113183,0,0,0.113183,583.047,618.427)">
						<path class="st2" d="M3384.4-1309.2c-18.9-10.9-42.1-10.9-61,0l0,0c-6.2,3.6-10.1,10.2-10.1,17.4c0,7.2,3.8,13.8,10.1,17.4
							l0,0c18.9,10.9,42.1,10.9,61,0l0,0c6.2-3.6,10.1-10.2,10.1-17.4S3390.7-1305.6,3384.4-1309.2
							C3384.5-1309.2,3384.5-1309.2,3384.4-1309.2z"/>
					</g>
					<g transform="matrix(0.113183,0,0,0.113183,567.871,627.189)">
						<path class="st2" d="M3384.4-1304.7c-18.9-10.9-42.1-10.9-61,0l0,0c-6.2,3.6-10.1,10.2-10.1,17.4s3.8,13.8,10.1,17.4l0,0
							c18.9,10.9,42.1,10.9,61,0l0,0c6.2-3.6,10.1-10.2,10.1-17.4S3390.7-1301.1,3384.4-1304.7
							C3384.5-1304.7,3384.5-1304.7,3384.4-1304.7z"/>
					</g>
					<g transform="matrix(0.80121,0,0,0.80121,-536.53,-230.098)">
						<path class="st4" d="M1650.2,732.7c-18.8-10.8-41.9-10.8-60.7,0l0,0c-6.3,3.6-10.1,10.3-10.1,17.5s3.8,13.9,10.1,17.5l0,0
							c18.8,10.8,41.9,10.8,60.7,0l0,0c6.2-3.6,10.1-10.3,10.1-17.5C1660.3,742.9,1656.4,736.3,1650.2,732.7L1650.2,732.7z"/>
					</g>
					<g transform="matrix(2.04389,1.17622,-1.79436,1.01127,-1036.04,-1569.2)">
						<text transform="matrix(0.2813 0 0 0.2813 1254.7988 485.2299)" class="st2 st14 st15">Endless</text>
						<text transform="matrix(0.2813 0 0 0.2813 1254.7988 499.6297)" class="st2 st14 st15">possibilities</text>
					</g>
					<g transform="matrix(1,0,0,1,-770.731,26.4367)">
						<path class="st4" d="M1535.9,584.8l-242.6,140.1l-52.4-30.3l242.6-140.1L1535.9,584.8z"/>
					</g>
					<g transform="matrix(1,0,0,1,-781.787,50.3181)">
						<g>
							<path class="st12" d="M1340.7,443.2l-242.6,140.1l135.5,78.3l242.6-140.1L1340.7,443.2z"/>
						</g>
					</g>
					<g transform="matrix(1,0,0,1,-781.787,2.12177)">
						<path class="st4" d="M1340.7,443.2l-242.6,140.1l135.5,78.3l242.6-140.1L1340.7,443.2z"/>
					</g>
					<g transform="matrix(0.865458,0,0,0.865458,-489.244,25.943)">
						<path class="st13" d="M1148.3,533l-14.7,8.5l135.5,78.3l14.7-8.5L1148.3,533z"/>
					</g>
					<g transform="matrix(0.865458,0,0,0.865458,-516.791,41.8472)">
						<path class="st13" d="M1148.4,533l-14.7,8.5l135.5,78.3l14.7-8.5L1148.4,533z"/>
					</g>
					<g transform="matrix(0.865458,0,0,0.865458,-544.338,57.7513)">
						<path class="st13" d="M1148.4,533l-14.7,8.5l135.5,78.3l14.7-8.5L1148.4,533z"/>
					</g>
					<g transform="matrix(0.865458,0,0,0.865458,-571.885,73.6555)">
						<path class="st13" d="M1148.4,533l-14.7,8.5l135.5,78.3l14.7-8.5L1148.4,533z"/>
					</g>
					<g transform="matrix(0.865458,0,0,0.865458,-594.955,86.9752)">
						<path class="st13" d="M1238.7,585.1l-72.2,41.7l45.3,26.1l72.2-41.7L1238.7,585.1z"/>
					</g>
				</g>
				<g transform="matrix(0.922577,0,0,0.922577,123.58,165.687)">
					<path class="st1" d="M2700.2,801.8l-367.8,212.4l-476.3-274.9l367.8-212.4L2700.2,801.8z"/>
				</g>
				<g transform="matrix(0.607664,0,0,0.607664,934.286,647.515)">
					<g transform="matrix(0.607664,0,0,0.607664,934.286,647.515)">
						<path class="st4" d="M3270.4-175.1l-605.3,349.4l-783.8-452.5l605.3-349.4L3270.4-175.1z"/>
					</g>
				</g>
				<g transform="matrix(1,0,0,1,0,61.8209)">
					<path class="st1" d="M2138.5,611.2l219.8,126.9l-223.6,129L1915,740.2L2138.5,611.2z"/>
				</g>
				<g transform="matrix(0.112663,0,0,0.112663,1560.57,1302.69)">
					<path class="st2" d="M4865.3-3052.1c-18.8-10.8-41.9-10.8-60.7,0l0,0c-6.3,3.6-10.1,10.3-10.1,17.5s3.9,13.9,10.1,17.5l0,0
						c18.8,10.8,41.9,10.8,60.7,0l0,0c6.2-3.6,10.1-10.3,10.1-17.5S4871.6-3048.5,4865.3-3052.1L4865.3-3052.1z"/>
				</g>
				<g transform="matrix(0.112663,0,0,0.112663,1538.95,1290.21)">
					<path class="st1" d="M4865.3-3052.1c-18.8-10.8-41.9-10.8-60.7,0l0,0c-6.3,3.6-10.1,10.3-10.1,17.5s3.9,13.9,10.1,17.5l0,0
						c18.8,10.8,41.9,10.8,60.7,0l0,0c6.2-3.6,10.1-10.3,10.1-17.5S4871.6-3048.5,4865.3-3052.1L4865.3-3052.1z"/>
				</g>
				<g transform="matrix(0.112663,0,0,0.112663,1583.78,1316.09)">
					<path class="st1" d="M4865.3-3052.1c-18.8-10.8-41.9-10.8-60.7,0l0,0c-6.3,3.6-10.1,10.3-10.1,17.5s3.9,13.9,10.1,17.5l0,0
						c18.8,10.8,41.9,10.8,60.7,0l0,0c6.2-3.6,10.1-10.3,10.1-17.5S4871.6-3048.5,4865.3-3052.1L4865.3-3052.1z"/>
				</g>
				<g>
					<g transform="matrix(1.72617,0,0,1.72617,-190.733,-861.015)">
						<path class="st1" d="M1593.4,882.5c-18.8-10.9-42.1-10.9-60.9,0l0,0c-6.2,3.6-10.1,10.2-10.1,17.4s3.8,13.8,10.1,17.4l0,0
							c18.8,10.9,42.1,10.9,60.9,0l0,0c6.2-3.6,10.1-10.2,10.1-17.4S1599.6,886.1,1593.4,882.5L1593.4,882.5z"/>
					</g>
					<g transform="matrix(1.38302,0,0,1.38302,267.195,-488.472)">
						<path class="st2" d="M1649.9,836.3c-18.8-10.8-41.9-10.8-60.7,0l0,0c-6.3,3.6-10.1,10.3-10.1,17.5s3.8,13.9,10.1,17.5l0,0
							c18.8,10.8,41.9,10.8,60.7,0l0,0c6.2-3.6,10.1-10.3,10.1-17.5S1656.1,840,1649.9,836.3L1649.9,836.3z"/>
					</g>
				</g>
				<g transform="matrix(0.798451,0,0,0.798451,425.663,140.759)">
					<g>
						<path class="st12" d="M1378.2,262.5l-40,23.1l135.5,78.3l40-23.1L1378.2,262.5z"/>
					</g>
				</g>
				<g transform="matrix(0.798451,0,0,0.798451,425.663,128.798)">
					<path class="st2" d="M1378.2,262.5l-40,23.1l135.5,78.3l40-23.1L1378.2,262.5z"/>
				</g>
				<g transform="matrix(0.922577,0,0,0.922577,-79.2613,155.365)">
					<path class="st3" d="M1524.5,457c-0.8-0.5-1.8-0.5-2.6,0c-0.8,0.5-1.3,1.3-1.3,2.3l0,0c0,2.8,1.5,5.4,4,6.9
						c5.5,3.1,15.2,8.8,20.6,11.9c0.8,0.5,1.8,0.5,2.6,0c0.8-0.5,1.3-1.3,1.3-2.3l0,0c0-2.8-1.5-5.4-4-6.9
						C1539.7,465.8,1529.9,460.2,1524.5,457z"/>
				</g>
				<g transform="matrix(0.922577,0,0,0.922577,120.115,167.688)">
					<path class="st0" d="M2004.4,267.2v245"/>
				</g>
				<g transform="matrix(0.922577,0,0,0.922577,147.165,167.688)">
					<path class="st0" d="M2004.4,267.2v245"/>
				</g>
				<g transform="matrix(0.922577,0,0,0.922577,174.215,167.688)">
					<path class="st0" d="M2004.3,267.2v245"/>
				</g>
				<g transform="matrix(0.922577,0,0,0.922577,201.265,167.688)">
					<path class="st0" d="M2004.3,267.2v245"/>
				</g>
				<g transform="matrix(0.798451,0,0,0.798451,1080,240.429)">
					<path class="st2" d="M1378,262.4l-23.4,13.5l79.3,45.8l23.4-13.5L1378,262.4z"/>
				</g>
				<g transform="matrix(0.798451,0,0,0.798451,369.321,-107.532)">
					<path class="st2" d="M1410.4,355l-23.4,13.5l79.3,45.8l23.4-13.5L1410.4,355z"/>
				</g>
				<g transform="matrix(0.798451,0,0,0.798451,50.6231,17.3893)">
					<path class="st2" d="M1378.3,262.5l-23.4,13.5l79.3,45.8l23.4-13.5L1378.3,262.5z"/>
				</g>
				<g transform="matrix(0.798451,0,0,0.798451,1156.06,284.345)">
					<path class="st2" d="M1378,262.4l-23.4,13.5l79.3,45.8l23.4-13.5L1378,262.4z"/>
				</g>
			</g>
		</g>
	</g>
</g>
</svg>
